<?xml version="1.0" encoding="UTF-8" standalone="no"?>
<!-- Created with Inkscape (http://www.inkscape.org/) -->

<!-- Nick Nerd Avatar -->

<svg
   xmlns:dc="http://purl.org/dc/elements/1.1/"
   xmlns:cc="http://creativecommons.org/ns#"
   xmlns:rdf="http://www.w3.org/1999/02/22-rdf-syntax-ns#"
   xmlns:svg="http://www.w3.org/2000/svg"
   xmlns="http://www.w3.org/2000/svg"
   xmlns:sodipodi="http://sodipodi.sourceforge.net/DTD/sodipodi-0.dtd"
   xmlns:inkscape="http://www.inkscape.org/namespaces/inkscape"
   width="142mm"
   height="172mm"
   viewBox="0 0 503.14961 609.44881"
   id="svg4541"
   version="1.1"
   inkscape:version="0.91 r"
   sodipodi:docname="avatar_nick_nerd.svg">
  <defs
     id="defs4543">
    <linearGradient
       id="SvgjsLinearGradient4407"
       x1="100"
       y1="172"
       x2="100"
       y2="122"
       gradientUnits="userSpaceOnUse"
       class="svga-on-canvas-chinshadow-gradient-single-0">
      <stop
         id="SvgjsStop4408"
         stop-opacity="0.8"
         stop-color="#e1ac8f"
         offset="0" />
      <stop
         id="SvgjsStop4409"
         stop-opacity="1"
         stop-color="#c27b55"
         offset="0.7" />
    </linearGradient>
    <linearGradient
       id="SvgjsLinearGradient4439"
       x1="100"
       y1="142"
       x2="100"
       y2="139"
       gradientUnits="userSpaceOnUse"
       class="svga-on-canvas-mouth-gradient-single-0">
      <stop
         id="SvgjsStop4440"
         stop-opacity="1"
         stop-color="#e8b9a0"
         offset="0.1" />
      <stop
         id="SvgjsStop4441"
         stop-opacity="1"
         stop-color="#e1ac8f"
         offset="1" />
    </linearGradient>
    <radialGradient
       id="SvgjsRadialGradient4266"
       cx="125.861"
       cy="84.497002"
       r="10.213"
       gradientTransform="matrix(-2.2231967,0,0,2.2231967,473.91925,506.76053)"
       gradientUnits="userSpaceOnUse"
       class="svga-on-canvas-eyesback-gradient-left-0">
      <stop
         id="SvgjsStop4267"
         stop-opacity="1"
         stop-color="#ffffff"
         offset="0" />
      <stop
         id="SvgjsStop4268"
         stop-opacity="1"
         stop-color="#fdfefe"
         offset="0.544" />
      <stop
         id="SvgjsStop4269"
         stop-opacity="1"
         stop-color="#f6f8f9"
         offset="0.74" />
      <stop
         id="SvgjsStop4270"
         stop-opacity="1"
         stop-color="#eaeff2"
         offset="0.879" />
      <stop
         id="SvgjsStop4271"
         stop-opacity="1"
         stop-color="#d9e3e8"
         offset="0.992" />
      <stop
         id="SvgjsStop4272"
         stop-opacity="1"
         stop-color="#d8e2e7"
         offset="1" />
    </radialGradient>
    <radialGradient
       id="SvgjsRadialGradient4811"
       cx="-568.659"
       cy="-521.04199"
       r="59.750999"
       gradientTransform="matrix(0.096,-0.0248,0.0245,0.0961,141.2814,119.9893)"
       gradientUnits="userSpaceOnUse"
       class="svga-on-canvas-eyesiris-gradient-left-1">
      <stop
         id="SvgjsStop4812"
         stop-opacity="1"
         stop-color="#ffffff"
         offset="0" />
      <stop
         id="SvgjsStop4813"
         stop-opacity="0"
         stop-color="#ffffff"
         offset="1" />
    </radialGradient>
    <radialGradient
       id="SvgjsRadialGradient4815"
       cx="-582.83801"
       cy="-519.099"
       r="59.744999"
       gradientTransform="matrix(0.0991,8.856319e-4,-0.0011,0.0991,131.1134,135.9855)"
       gradientUnits="userSpaceOnUse"
       class="svga-on-canvas-eyesiris-gradient-left-2">
      <stop
         id="SvgjsStop4816"
         stop-opacity="1"
         stop-color="#ffffff"
         offset="0" />
      <stop
         id="SvgjsStop4817"
         stop-opacity="0"
         stop-color="#ffffff"
         offset="1" />
    </radialGradient>
    <linearGradient
       id="SvgjsLinearGradient4821"
       x1="122.67"
       y1="88.267998"
       x2="123.606"
       y2="87.152"
       gradientTransform="translate(-52,0)"
       gradientUnits="userSpaceOnUse"
       class="svga-on-canvas-eyesiris-gradient-left-5">
      <stop
         id="SvgjsStop4822"
         stop-opacity="1"
         stop-color="#ffffff"
         offset="0" />
      <stop
         id="SvgjsStop4823"
         stop-opacity="0"
         stop-color="#ffffff"
         offset="1" />
    </linearGradient>
    <linearGradient
       id="SvgjsLinearGradient4825"
       x1="127.212"
       y1="82.295998"
       x2="126.463"
       y2="83.189003"
       gradientTransform="translate(-52,0)"
       gradientUnits="userSpaceOnUse"
       class="svga-on-canvas-eyesiris-gradient-left-6">
      <stop
         id="SvgjsStop4826"
         stop-opacity="1"
         stop-color="#ffffff"
         offset="0" />
      <stop
         id="SvgjsStop4827"
         stop-opacity="0"
         stop-color="#ffffff"
         offset="1" />
    </linearGradient>
    <linearGradient
       id="SvgjsLinearGradient4829"
       x1="129.636"
       y1="79.821999"
       x2="127.91"
       y2="81.878998"
       gradientTransform="translate(-52,0)"
       gradientUnits="userSpaceOnUse"
       class="svga-on-canvas-eyesiris-gradient-left-7">
      <stop
         id="SvgjsStop4830"
         stop-opacity="1"
         stop-color="#ffffff"
         offset="0" />
      <stop
         id="SvgjsStop4831"
         stop-opacity="0"
         stop-color="#ffffff"
         offset="1" />
    </linearGradient>
    <radialGradient
       id="SvgjsRadialGradient4292"
       cx="123.755"
       cy="83.737999"
       fx="136.189"
       fy="83.773003"
       r="17.684"
       gradientTransform="matrix(0.9998,0.0208,0.0166,-0.7998,-48.8769,148.1393)"
       gradientUnits="userSpaceOnUse"
       class="svga-on-canvas-eyesfront-gradient-left-3">
      <stop
         id="SvgjsStop4293"
         stop-opacity="1"
         stop-color="#e1ac8f"
         offset="0" />
      <stop
         id="SvgjsStop4294"
         stop-opacity="0.3"
         stop-color="#e1ac8f"
         offset="0.7" />
      <stop
         id="SvgjsStop4295"
         stop-opacity="0"
         stop-color="#f0c7b1"
         offset="1" />
    </radialGradient>
    <radialGradient
       id="SvgjsRadialGradient4297"
       cx="122.636"
       cy="100.958"
       r="25.823999"
       gradientTransform="matrix(-0.8746,-0.4848,-0.3636,0.656,221.3328,94.1879)"
       gradientUnits="userSpaceOnUse"
       class="svga-on-canvas-eyesfront-gradient-left-4">
      <stop
         id="SvgjsStop4298"
         stop-opacity="0"
         stop-color="#000000"
         offset="0.94" />
      <stop
         id="SvgjsStop4299"
         stop-opacity="0.2"
         stop-color="#000000"
         offset="1" />
    </radialGradient>
    <radialGradient
       id="SvgjsRadialGradient4274"
       cx="125.861"
       cy="84.497002"
       r="10.213"
       gradientUnits="userSpaceOnUse"
       class="svga-on-canvas-eyesback-gradient-right-0"
       gradientTransform="matrix(2.2231967,0,0,2.2231967,29.279908,506.76053)">
      <stop
         id="SvgjsStop4275"
         stop-opacity="1"
         stop-color="#ffffff"
         offset="0" />
      <stop
         id="SvgjsStop4276"
         stop-opacity="1"
         stop-color="#fdfefe"
         offset="0.544" />
      <stop
         id="SvgjsStop4277"
         stop-opacity="1"
         stop-color="#f6f8f9"
         offset="0.74" />
      <stop
         id="SvgjsStop4278"
         stop-opacity="1"
         stop-color="#eaeff2"
         offset="0.879" />
      <stop
         id="SvgjsStop4279"
         stop-opacity="1"
         stop-color="#d9e3e8"
         offset="0.992" />
      <stop
         id="SvgjsStop4280"
         stop-opacity="1"
         stop-color="#d8e2e7"
         offset="1" />
    </radialGradient>
    <radialGradient
       id="SvgjsRadialGradient4834"
       cx="-568.65399"
       cy="-521.04199"
       r="59.751999"
       gradientTransform="matrix(0.096,-0.0248,0.0245,0.0961,193.2804,119.9894)"
       gradientUnits="userSpaceOnUse"
       class="svga-on-canvas-eyesiris-gradient-right-1">
      <stop
         id="SvgjsStop4835"
         stop-opacity="1"
         stop-color="#ffffff"
         offset="0" />
      <stop
         id="SvgjsStop4836"
         stop-opacity="0"
         stop-color="#ffffff"
         offset="1" />
    </radialGradient>
    <radialGradient
       id="SvgjsRadialGradient4838"
       cx="-582.83301"
       cy="-519.10199"
       r="59.747002"
       gradientTransform="matrix(0.0991,8.856319e-4,-0.0011,0.0991,183.1126,135.9856)"
       gradientUnits="userSpaceOnUse"
       class="svga-on-canvas-eyesiris-gradient-right-2">
      <stop
         id="SvgjsStop4839"
         stop-opacity="1"
         stop-color="#ffffff"
         offset="0" />
      <stop
         id="SvgjsStop4840"
         stop-opacity="0"
         stop-color="#ffffff"
         offset="1" />
    </radialGradient>
    <linearGradient
       id="SvgjsLinearGradient4844"
       x1="122.67"
       y1="88.267998"
       x2="123.606"
       y2="87.152"
       gradientUnits="userSpaceOnUse"
       class="svga-on-canvas-eyesiris-gradient-right-5">
      <stop
         id="SvgjsStop4845"
         stop-opacity="1"
         stop-color="#ffffff"
         offset="0" />
      <stop
         id="SvgjsStop4846"
         stop-opacity="0"
         stop-color="#ffffff"
         offset="1" />
    </linearGradient>
    <linearGradient
       id="SvgjsLinearGradient4848"
       x1="127.212"
       y1="82.295998"
       x2="126.463"
       y2="83.189003"
       gradientUnits="userSpaceOnUse"
       class="svga-on-canvas-eyesiris-gradient-right-6">
      <stop
         id="SvgjsStop4849"
         stop-opacity="1"
         stop-color="#ffffff"
         offset="0" />
      <stop
         id="SvgjsStop4850"
         stop-opacity="0"
         stop-color="#ffffff"
         offset="1" />
    </linearGradient>
    <linearGradient
       id="SvgjsLinearGradient4852"
       x1="129.636"
       y1="79.821999"
       x2="127.91"
       y2="81.878998"
       gradientUnits="userSpaceOnUse"
       class="svga-on-canvas-eyesiris-gradient-right-7">
      <stop
         id="SvgjsStop4853"
         stop-opacity="1"
         stop-color="#ffffff"
         offset="0" />
      <stop
         id="SvgjsStop4854"
         stop-opacity="0"
         stop-color="#ffffff"
         offset="1" />
    </linearGradient>
    <radialGradient
       id="SvgjsRadialGradient4313"
       cx="123.755"
       cy="83.737999"
       fx="136.19"
       fy="83.773003"
       r="17.684999"
       gradientTransform="matrix(-0.9998,0.0208,-0.0166,-0.7998,248.8769,148.1393)"
       gradientUnits="userSpaceOnUse"
       class="svga-on-canvas-eyesfront-gradient-right-3">
      <stop
         id="SvgjsStop4314"
         stop-opacity="1"
         stop-color="#e1ac8f"
         offset="0" />
      <stop
         id="SvgjsStop4315"
         stop-opacity="0.3"
         stop-color="#e1ac8f"
         offset="0.7" />
      <stop
         id="SvgjsStop4316"
         stop-opacity="0"
         stop-color="#f0c7b1"
         offset="1" />
    </radialGradient>
    <radialGradient
       id="SvgjsRadialGradient4318"
       cx="122.636"
       cy="100.958"
       r="25.823999"
       gradientTransform="matrix(0.8746,-0.4848,0.3636,0.656,-21.3328,94.1879)"
       gradientUnits="userSpaceOnUse"
       class="svga-on-canvas-eyesfront-gradient-right-4">
      <stop
         id="SvgjsStop4319"
         stop-opacity="0"
         stop-color="#000000"
         offset="0.94" />
      <stop
         id="SvgjsStop4320"
         stop-opacity="0.2"
         stop-color="#000000"
         offset="1" />
    </radialGradient>
    <radialGradient
       id="SvgjsRadialGradient2886"
       cx="100"
       cy="114"
       r="41"
       gradientUnits="userSpaceOnUse"
       class="svga-on-canvas-facehighlight-gradient-single-0"
       gradientTransform="matrix(2.2231967,0,0,2.2231967,29.279908,506.76053)">
      <stop
         id="SvgjsStop2887"
         stop-opacity="0.5"
         stop-color="#ffe4d6"
         offset="0" />
      <stop
         id="SvgjsStop2888"
         stop-opacity="0"
         stop-color="#f0c7b1"
         offset="0.9" />
    </radialGradient>
    <radialGradient
       id="SvgjsRadialGradient2890"
       cx="100"
       cy="54"
       r="37"
       gradientUnits="userSpaceOnUse"
       class="svga-on-canvas-facehighlight-gradient-single-1"
       gradientTransform="matrix(2.2231967,0,0,2.2231967,29.279908,506.76053)">
      <stop
         id="SvgjsStop2891"
         stop-opacity="0.5"
         stop-color="#ffe4d6"
         offset="0" />
      <stop
         id="SvgjsStop2892"
         stop-opacity="0"
         stop-color="#f0c7b1"
         offset="0.9" />
    </radialGradient>
    <radialGradient
       id="SvgjsRadialGradient4811-3"
       cx="-568.659"
       cy="-521.04199"
       r="59.750999"
       gradientTransform="matrix(0.096,-0.0248,0.0245,0.0961,141.2814,119.9893)"
       gradientUnits="userSpaceOnUse"
       class="svga-on-canvas-eyesiris-gradient-left-1">
      <stop
         id="SvgjsStop4812-6"
         stop-opacity="1"
         stop-color="#ffffff"
         offset="0" />
      <stop
         id="SvgjsStop4813-7"
         stop-opacity="0"
         stop-color="#ffffff"
         offset="1" />
    </radialGradient>
    <radialGradient
       id="SvgjsRadialGradient4815-5"
       cx="-582.83801"
       cy="-519.099"
       r="59.744999"
       gradientTransform="matrix(0.0991,8.856319e-4,-0.0011,0.0991,131.1134,135.9855)"
       gradientUnits="userSpaceOnUse"
       class="svga-on-canvas-eyesiris-gradient-left-2">
      <stop
         id="SvgjsStop4816-3"
         stop-opacity="1"
         stop-color="#ffffff"
         offset="0" />
      <stop
         id="SvgjsStop4817-5"
         stop-opacity="0"
         stop-color="#ffffff"
         offset="1" />
    </radialGradient>
    <linearGradient
       id="SvgjsLinearGradient4821-6"
       x1="122.67"
       y1="88.267998"
       x2="123.606"
       y2="87.152"
       gradientTransform="translate(-52,0)"
       gradientUnits="userSpaceOnUse"
       class="svga-on-canvas-eyesiris-gradient-left-5">
      <stop
         id="SvgjsStop4822-2"
         stop-opacity="1"
         stop-color="#ffffff"
         offset="0" />
      <stop
         id="SvgjsStop4823-9"
         stop-opacity="0"
         stop-color="#ffffff"
         offset="1" />
    </linearGradient>
    <linearGradient
       id="SvgjsLinearGradient4825-1"
       x1="127.212"
       y1="82.295998"
       x2="126.463"
       y2="83.189003"
       gradientTransform="translate(-52,0)"
       gradientUnits="userSpaceOnUse"
       class="svga-on-canvas-eyesiris-gradient-left-6">
      <stop
         id="SvgjsStop4826-2"
         stop-opacity="1"
         stop-color="#ffffff"
         offset="0" />
      <stop
         id="SvgjsStop4827-7"
         stop-opacity="0"
         stop-color="#ffffff"
         offset="1" />
    </linearGradient>
    <linearGradient
       id="SvgjsLinearGradient4829-0"
       x1="129.636"
       y1="79.821999"
       x2="127.91"
       y2="81.878998"
       gradientTransform="translate(-52,0)"
       gradientUnits="userSpaceOnUse"
       class="svga-on-canvas-eyesiris-gradient-left-7">
      <stop
         id="SvgjsStop4830-9"
         stop-opacity="1"
         stop-color="#ffffff"
         offset="0" />
      <stop
         id="SvgjsStop4831-3"
         stop-opacity="0"
         stop-color="#ffffff"
         offset="1" />
    </linearGradient>
  </defs>
  <sodipodi:namedview
     id="base"
     pagecolor="#ffffff"
     bordercolor="#666666"
     borderopacity="1.0"
     inkscape:pageopacity="0.0"
     inkscape:pageshadow="2"
     inkscape:zoom="0.87784238"
     inkscape:cx="251.5748"
     inkscape:cy="301.07787"
     inkscape:document-units="px"
     inkscape:current-layer="layer1"
     showgrid="false"
     inkscape:window-width="1366"
     inkscape:window-height="716"
     inkscape:window-x="0"
     inkscape:window-y="0"
     inkscape:window-maximized="1"
     width="142mm" />
  <metadata
     id="metadata4546">
    <rdf:RDF>
      <cc:Work
         rdf:about="">
        <dc:format>image/svg+xml</dc:format>
        <dc:type
           rdf:resource="http://purl.org/dc/dcmitype/StillImage" />
        <dc:title></dc:title>
      </cc:Work>
    </rdf:RDF>
  </metadata>
  <g
     inkscape:label="Ebene 1"
     inkscape:groupmode="layer"
     id="layer1"
     transform="translate(0,-442.91339)">
    <g
       id="svga-group-humanbody-single"
       transform="matrix(2.2231967,0,0,2.2231967,29.279908,506.76053)">
      <path
         id="SvgjsPath2893"
         d="m 195.417,199.778 c -2.196,-4.746 -8.195,-11.779 -14.86,-13.722 -8.239,-2.403 -26.837,-5.308 -33.733,-6.923 -5.528,-1.296 -16.662,-11.294 -20.564,-14.65 -0.7,-0.6 -1.273,-1.839 -1.287,-2.76 -0.139,-10.864 4.195,-39.724 4.195,-39.724 l -29.168,0 -29.167,0 c 0,0 4.334,28.859 4.193,39.724 -0.011,0.921 -0.587,2.16 -1.285,2.76 -3.902,3.356 -15.036,13.354 -20.564,14.65 -6.897,1.615 -25.495,4.619 -33.733,7.022 -6.667,1.942 -12.664,8.876 -14.86,13.622 -3.708,8.008 -4.584,22.5 -4.584,35 l 100,0 100,0 c 0,-12.499 -0.877,-26.991 -4.583,-34.999 z"
         stroke-width="none"
         inkscape:connector-curvature="0"
         style="opacity:1;fill:#f0c7b1;stroke:none" />
      <path
         id="SvgjsPath2894"
         d="m 159.156,184.058 c 24.342,3.542 34.586,8.708 37.794,50.721 l 3.05,0 c 0,-12.5 -0.877,-26.992 -4.583,-35 -2.196,-4.746 -8.195,-11.779 -14.86,-13.722 -8.239,-2.403 -26.837,-5.308 -33.733,-6.923 -5.528,-1.296 -18.242,-12.069 -21.643,-16.35 3.36,4.704 12.791,15.605 21.054,18.46 3.953,1.366 7.245,1.988 12.921,2.814 z m -105.39,-2.814 c 8.263,-2.854 17.693,-13.756 21.054,-18.46 -3.4,4.28 -16.114,15.054 -21.643,16.35 -6.896,1.615 -25.494,4.619 -33.733,7.022 -6.665,1.942 -12.664,8.876 -14.86,13.622 -3.706,8.008 -4.583,22.5 -4.583,35 l 3.05,0 c 3.188,-41.744 13.475,-47.183 37.794,-50.721 5.675,-0.825 8.968,-1.447 12.921,-2.813 z"
         stroke-width="none"
         inkscape:connector-curvature="0"
         style="opacity:1;fill:#ffe4d6;stroke:none" />
      <path
         id="SvgjsPath2895"
         d="m 95.646,197.62 c 0,0 -5.074,-1.609 -7.083,-2.379 -10.449,-4.009 -44.395,-6.607 -44.395,-6.607 0,0 35.754,1.419 43.644,2.779 -0.458,-4.767 -3.017,-20.004 -3.017,-20.004 0,0 5.149,16.815 6.409,21.057 0.674,2.268 4.442,5.154 4.442,5.154 z m 10.799,-1.342 c -0.089,0.073 -0.191,0.168 -0.302,0.268 0.113,-0.085 0.215,-0.174 0.302,-0.268 z m -10.799,1.342 c 0,0 2.893,2.992 4.347,3.03 1.91,0.051 4.828,-2.899 6.151,-4.104 -1.265,0.957 -4.159,1.391 -5.31,1.436 -1.33,0.051 -5.188,-0.362 -5.188,-0.362 z m 21.018,-7.519 c -1.545,0.248 -4.386,0.789 -4.386,0.789 L 114.565,176 c -0.646,3.071 -4.474,16.211 -8.12,20.278 1.91,-1.616 6.158,-2.391 8.324,-2.704 10.236,-1.484 10.232,-1.483 41.062,-4.94 0,0 -29.071,-0.155 -39.167,1.467 z"
         stroke-width="none"
         inkscape:connector-curvature="0"
         style="opacity:1;fill:#e1ac8f;stroke:none" />
      <path
         id="SvgjsPath2896"
         d="m 195.417,199.778 c -2.196,-4.746 -8.195,-11.779 -14.86,-13.722 -8.239,-2.403 -26.837,-5.308 -33.733,-6.923 -5.528,-1.296 -16.662,-11.294 -20.564,-14.65 -0.7,-0.6 -1.273,-1.839 -1.287,-2.76 -0.139,-10.864 4.195,-39.724 4.195,-39.724 l -29.168,0 -29.167,0 c 0,0 4.334,28.859 4.193,39.724 -0.011,0.921 -0.587,2.16 -1.285,2.76 -3.902,3.356 -15.036,13.354 -20.564,14.65 -6.897,1.615 -25.495,4.619 -33.733,7.022 -6.667,1.942 -12.664,8.876 -14.86,13.622 -3.708,8.008 -4.584,22.5 -4.584,35 l 100,0 100,0 c 0,-12.499 -0.877,-26.991 -4.583,-34.999 z"
         inkscape:connector-curvature="0"
         style="opacity:1;fill:none;stroke:#c27b55;stroke-width:1.5" />
    </g>
    <g
       id="svga-group-chinshadow-single"
       transform="matrix(2.2231967,0,0,2.3523631,29.279908,490.90536)">
      <path
         id="SvgjsPath4406"
         d="m 75.517,163.052 c 6.979,4.54 16.307,8.814 24.485,8.814 7.828,0 17.345,-4.309 24.458,-8.869 -0.145,-0.428 -0.233,-0.862 -0.239,-1.264 -0.126,-9.877 3.345,-34.021 4.076,-38.983 l -56.594,0 c 0.73,4.963 4.202,29.106 4.074,38.982 -0.005,0.414 -0.101,0.871 -0.26,1.32 z"
         style="opacity:1;fill:url(#SvgjsLinearGradient4407)"
         inkscape:connector-curvature="0" />
    </g>
    <path
       style="opacity:1;fill:#15315e;stroke:none;fill-opacity:1"
       inkscape:connector-curvature="0"
       stroke-width="none"
       d="m 469.02377,954.83693 c -23.29466,-45.08198 -68.14765,-38.69251 -111.08869,-50.78448 -1.04046,7.97016 -29.45958,45.52885 -36.20921,66.83152 -3.79055,-3.16361 -8.31475,-7.39213 -11.58063,-11.26272 -15.98034,-18.77045 -39.66405,-79.50151 -47.61198,-32.07628 1.72742,-21.28933 11.12265,-25.98028 24.16837,-8.13468 14.02393,19.20398 14.54415,29.11943 34.55292,50.00192 3.53489,-14.67532 11.18713,-25.03097 20.08881,-38.02556 8.61489,-12.58996 14.90653,-18.268 15.82694,-29.47514 -3.21252,-5.35346 -2.4433,-7.75006 -7.63446,-11.21825 -32.58095,-22.03632 -9.31964,-44.39724 -38.85259,-49.72179 -0.23121,2.66339 -0.52245,5.64692 -0.767,7.89012 6.3161,3.25032 8.20582,15.9003 -1.51844,25.16214 -15.45344,16.96522 -40.28433,17.80781 -46.75828,43.84811 l -0.0156,-0.002 c -2.0609,7.73005 -3.71051,19.56191 -4.49308,26.49828 l -5.45795,55.35315 -5.49129,-54.37272 c -4.45307,-40.81567 -10.27339,-44.80853 -29.3084,-57.42073 -12.6122,-8.35922 -33.22123,-20.97141 -26.49384,-35.23099 0.767,-1.64962 1.70075,-2.66339 2.85903,-3.42595 -0.33348,-3.25921 -0.52912,-5.14892 -0.78701,-8.17692 -24.3818,1.03824 -20.63349,35.53113 -39.09714,48.22114 -4.8399,3.3259 -7.30764,6.40058 -9.04396,11.40277 1.18052,13.9639 32.24524,45.52218 37.67207,68.69456 20.19774,-21.3249 20.35336,-30.64232 34.45955,-49.93078 12.14977,-16.59616 22.07189,-14.89319 24.15947,7.56554 -1.14717,-6.7474 -3.86391,-17.07637 -9.75094,-17.07637 -4.85101,0 -9.90656,7.15425 -12.40766,10.60687 -14.00391,19.2929 -16.25379,33.09228 -37.00955,50.31761 -1.43619,-4.31522 -3.12137,-8.65046 -5.13114,-12.68556 -8.22583,-16.61617 -30.50004,-50.1442 -33.03226,-53.39451 -9.84431,2.7701 -24.84867,5.83811 -33.86595,7.33655 -58.923608,9.80652 -81.764731,28.83263 -90.450761,117.89834 216.099161,-2.1876 304.157761,-1.2361 465.114981,-1.2361 -2.01199,-19.8176 -5.96706,-56.38249 -15.04437,-73.97687 z"
       id="SvgjsPath4993" />
    <path
       style="opacity:1;fill:#233b6d;stroke:none"
       inkscape:connector-curvature="0"
       stroke-width="none"
       d="m 340.45853,930.90867 c -7.69449,11.23603 -13.78605,20.67573 -17.58104,32.50535 4.37303,-24.40847 32.09406,-47.5186 29.09275,-62.11389 -1.28501,-6.25163 -23.40137,-20.18885 -24.54632,-40.90682 6.10268,18.98166 28.88378,32.52982 28.92157,41.62491 0.06,14.88208 -0.38461,6.24052 -15.88696,28.89045 z m 143.43398,96.14213 c 0.77145,-19.3018 -5.71806,-56.87826 -13.76159,-72.47176 -23.29465,-45.08198 -70.17076,-39.33057 -113.10958,-51.42254 -0.38016,0.48466 1.08937,3.69051 0.06,5.06889 100.37511,18.497 111.80456,40.54444 126.81114,118.82541 z M 153.36096,889.3171 c 12.33207,-10.22003 16.02925,-20.11993 18.85938,-28.92601 -6.33611,36.19364 -15.80915,22.50542 -22.72107,40.63114 -3.95284,10.36677 26.68503,38.69029 30.82684,62.38957 -5.42904,-9.28184 -11.24937,-20.70463 -18.94385,-31.94067 -5.9893,-8.75272 -9.8043,-16.75623 -15.73801,-23.49251 -2.82791,-14.92432 3.01243,-14.76203 7.71671,-18.66152 z m -7.71894,18.66374 c -1.02934,-1.37838 -1.98753,-2.67673 -2.3677,-3.16139 -42.93882,12.08975 -85.802055,4.67761 -109.094486,49.76181 -8.045749,15.59351 -12.063066,47.49414 -14.279593,66.83824 4.288547,-23.50591 10.680237,-53.11889 24.372906,-70.9845 23.219066,-31.49603 66.064513,-37.57424 101.368873,-42.45416 z"
       id="SvgjsPath4994" />
    <path
       style="opacity:1;fill:#0a1f4f;stroke:none"
       inkscape:connector-curvature="0"
       stroke-width="none"
       d="m 295.72559,887.79866 c -10.81141,6.26941 -19.96653,12.42322 -26.04031,21.07813 14.59974,0.80479 25.39113,26.89845 28.31019,30.44668 -27.41868,-38.1634 -37.79434,-12.22759 -41.12914,12.0764 0.96042,-7.88346 1.74966,-21.3338 3.30589,-27.10744 0.45354,-2.29656 0.94042,-4.49308 1.45398,-6.42281 l 0.0156,0.002 c 6.47395,-26.0403 31.30483,-26.88289 46.75827,-43.84811 9.72426,-9.26184 7.83232,-21.91182 1.51844,-25.16214 0.24233,-2.2432 0.53579,-5.22673 0.76701,-7.89012 1.62071,0.29568 3.06578,0.64917 4.40637,1.04268 19.91762,17.52101 -5.77809,39.70407 -19.36626,45.78451 z m -90.89095,0 c 10.81362,6.26941 24.0372,13.69934 30.09319,21.6028 -10.6669,-1.94085 -22.52321,13.9928 -28.45248,28.07231 25.56677,-32.60763 33.34796,-14.07951 41.50042,13.92832 -0.9582,-7.88123 -3.38815,-21.33379 -4.94439,-27.10743 -0.45353,-2.29657 -0.93819,-4.49308 -1.45397,-6.42282 l -0.0133,0.002 c -6.47395,-26.0403 -30.41778,-26.88289 -45.87122,-43.8481 -9.72426,-9.26184 -8.05242,-21.91183 -1.73632,-25.16215 -0.24232,-2.2432 -0.53356,-5.22673 -0.76478,-7.89012 -1.62071,0.29569 -3.06578,0.64917 -4.40637,1.04268 -16.69176,20.38227 3.83724,38.3746 16.04926,45.78229 z"
       id="SvgjsPath4995" />
    <path
       style="opacity:1;fill:#01153f;stroke:none"
       inkscape:connector-curvature="0"
       stroke-width="none"
       d="m 309.12702,869.85968 c 0.0689,-12.67444 -0.35349,-5.64247 0.92929,-19.98653 4.94439,2.65227 5.57356,13.53926 -0.92929,19.98653 z m -115.02153,-1.1983 c -5.16449,-6.75852 -5.80255,-13.66154 -0.77145,-18.87494 1.20497,11.24493 0.59359,9.88878 0.77145,18.87494 z"
       id="SvgjsPath4996" />
    <path
       style="opacity:1;fill:#000f30;stroke:none"
       inkscape:connector-curvature="0"
       stroke-width="none"
       d="m 357.4771,900.07737 c -0.45798,-7.87456 -17.36984,-14.44188 -24.87313,-31.51381 -5.37346,-12.16088 -0.27345,-26.08699 -22.37647,-28.32575 -1.21164,7.08533 -2.28545,22.66105 -1.96308,30.18879 -11.20047,12.0564 -28.52584,15.17554 -39.53956,28.139 -11.75626,13.83718 -16.85183,43.79698 -17.04525,105.9731 l 2.73898,-1.7808 c 0,0 3.05023,-58.88133 3.07246,-59.05474 6.85634,-58.75242 28.65256,-44.87522 51.08684,-69.5038 10.05107,-9.63088 7.65002,-22.39203 1.60514,-25.4845 0.26234,-2.48998 0.50689,-4.9555 0.72254,-7.44771 19.01278,3.49264 13.58151,14.68422 19.52856,28.35243 7.90569,18.17241 22.89226,22.14082 23.85935,30.95357 1.53401,13.9639 -6.79854,19.89094 -15.15553,32.08962 -13.14576,19.02834 -16.18487,28.73482 -18.01012,36.25589 -19.95319,-20.95585 -19.9643,-30.1421 -34.23278,-49.66177 -15.21556,-20.82246 -25.20883,-11.05818 -29.404,24.44627 0.4313,-5.83589 8.38145,-38.1834 17.88117,-32.57205 10.98037,6.39836 21.76732,33.58805 34.59516,48.65688 3.4215,4.05289 7.82788,8.11912 11.88299,11.52061 7.57443,-26.44937 35.57115,-54.39051 36.47821,-67.15166 43.78586,12.35208 118.80541,-0.32236 125.47945,124.41676 -91.45787,0.4891 -190.78363,-1.5162 -464.581417,1.2316 3.968406,-40.98903 10.680236,-81.16442 34.955321,-99.27235 10.415677,-7.79676 22.492081,-11.8741 34.930867,-14.46857 17.334269,-3.59268 36.731659,-5.90259 53.919189,-10.55351 1.75188,2.22319 31.58051,47.12732 38.29234,65.79995 24.15059,-18.90384 33.80815,-54.37717 47.10509,-60.50208 9.25739,-4.25297 16.80515,26.54053 17.23645,32.35419 -3.62381,-37.55202 -15.45122,-49.83963 -37.8477,-10.9448 -11.03595,19.17285 -13.96168,24.37068 -25.70016,36.70498 -4.71318,-19.99543 -37.56091,-57.70085 -36.13361,-68.16766 1.4095,-10.32897 14.03726,-7.47661 22.44984,-29.44402 4.71762,-12.31651 3.67272,-25.89579 23.80599,-29.91311 0.21787,2.59447 0.48243,5.15782 0.74699,7.75006 -5.5113,3.62604 -6.91192,15.80916 1.89416,24.32622 7.93015,9.08176 22.24086,14.26403 31.69167,21.51165 11.14044,8.59711 15.54682,17.40096 19.09282,48.17668 0.0778,0.6714 3.04578,59.89737 3.04578,59.89737 l 2.96352,1.4829 c -1.48288,-61.87827 -7.41436,-99.08347 -19.3885,-109.51026 -10.34231,-9.22627 -28.40134,-15.10884 -37.16518,-25.40891 0.26678,-7.72784 -1.25611,-23.38359 -2.20764,-29.28173 -20.02877,2.0409 -20.59569,14.75758 -24.89091,25.86023 -11.48281,29.6819 -22.52987,21.18039 -24.35956,33.47912 -0.17119,1.14939 0.0934,2.01421 0.37127,3.54377 -16.85183,3.44151 -37.88327,5.69805 -54.781788,8.7883 -25.21772,4.60424 -49.010371,17.91452 -59.859571,43.24562 -8.24139,19.22398 -10.629103,53.47006 -11.233813,74.57266 -0.02445,0.1512 -0.02445,0.3268 -0.02445,0.478 0.337926,0.027 0.698084,0.027 1.03601,0.027 290.071587,3.0836 463.423127,-1.285 465.835297,-1.285 C 485.85559,910.42191 421.01161,915.61085 357.4771,900.07737 Z m -48.12776,-30.88242 c 0.0356,-6.52064 0.23343,-14.07061 0.70697,-19.3218 3.55267,2.53444 6.31166,10.95813 -0.70697,19.3218 z m -115.35723,-0.9582 c -5.89592,-7.71671 -3.55712,-15.19777 -0.88039,-17.78557 0.55802,5.21562 0.77812,12.51882 0.88039,17.78557 z"
       id="SvgjsPath4997" />
    <g
       id="svga-group-ears-left"
       transform="matrix(2.2231967,0,0,2.2231967,29.279908,506.76053)">
      <path
         style="opacity:1;fill:#f0c7b1;stroke:#c27b55;stroke-width:1.5"
         inkscape:connector-curvature="0"
         d="m 47.001,83.231 c -1.376,-2.453 -5.638,-8.48 -9.98,-7.003 -2.749,0.935 -3.293,3.993 -3.735,6.693 -0.588,3.591 0.471,10.694 1.389,13.26 0.881,2.467 3.533,7.23 5.264,9.045 2.13,2.225 4.775,9.324 5.194,10.061 0.66,1.162 1.536,2.911 4.122,2.692 2.853,-0.244 4.584,-1.85 5.856,-2.121 3.142,-0.666 -4.529,-26.242 -8.11,-32.627 z"
         id="SvgjsPath4899" />
      <path
         style="opacity:1;fill:#c27b55"
         inkscape:connector-curvature="0"
         stroke-width="none"
         d="m 44.197,98.104 c -0.132,-0.581 0.007,-1.56 0.142,-2.504 0.124,-0.861 0.24,-1.675 0.169,-2.251 -0.267,-2.154 -1.773,-6.249 -2.757,-8.467 -1.132,-2.554 -2.963,-5.77 -5.262,-6.599 -0.95,-0.343 -1.575,0.067 -1.938,0.484 -0.266,0.305 -0.325,0.665 -0.238,0.707 0.086,0.042 0.285,-0.254 0.572,-0.535 0.235,-0.229 0.579,-0.426 1.051,-0.385 -0.19,1.073 -1.167,6.883 -0.744,10.845 0.333,3.115 1.593,5.442 1.79,5.791 0.029,0.367 0.077,0.726 0.148,1.075 0.929,4.547 4.971,9.717 6.378,11.409 0.259,0.313 0.531,0.497 0.598,0.423 0.066,-0.076 -0.094,-0.387 -0.353,-0.7 -1.388,-1.679 -5.391,-6.831 -6.289,-11.218 -0.952,-4.656 2.318,-11.556 3.048,-13.017 0.371,0.685 0.687,1.344 0.93,1.893 0.19,0.431 0.402,0.936 0.619,1.479 -0.429,0.762 -3.434,6.32 -2.338,10.767 0.406,1.641 2.235,3.755 3.447,4.333 0.667,0.32 0.919,0.797 1.209,1.349 0.336,0.64 0.718,1.365 1.828,1.892 0.225,0.108 0.429,0.151 0.61,0.151 0.313,0 0.551,-0.135 0.725,-0.293 0.018,0.28 0.017,0.64 0.009,0.97 -0.012,0.431 0.042,0.783 0.137,0.791 0.094,0.008 0.196,-0.332 0.207,-0.76 0.016,-0.526 0.013,-1.177 -0.072,-1.488 -0.248,-0.917 -1.008,-1.953 -1.813,-3.048 -0.789,-1.082 -1.607,-2.195 -1.813,-3.094 z M 36.95,94.073 c -2.177,-7.139 0.656,-13.3 1.144,-14.28 0.85,0.822 1.6,1.919 2.21,2.995 -0.444,0.858 -3.263,6.483 -3.354,11.285 z m 9.391,10.442 c -1.004,-0.475 -1.339,-1.115 -1.666,-1.733 -0.293,-0.559 -0.598,-1.136 -1.369,-1.505 -0.168,-0.081 -0.352,-0.203 -0.542,-0.343 -2.486,-6.263 0.272,-9.001 0.963,-9.562 0.211,0.766 0.369,1.468 0.439,2.031 0.063,0.517 -0.052,1.339 -0.167,2.134 -0.142,0.985 -0.286,2.004 -0.137,2.664 0.226,0.982 1.069,2.131 1.884,3.242 0.723,0.986 1.466,2.003 1.721,2.832 -0.108,0.164 -0.45,0.561 -1.126,0.24 z"
         id="SvgjsPath4900" />
    </g>
    <g
       id="svga-group-ears-right"
       transform="matrix(2.2231967,0,0,2.2231967,29.279908,506.76053)">
      <path
         style="opacity:1;fill:#f0c7b1;stroke:#c27b55;stroke-width:1.5"
         inkscape:connector-curvature="0"
         d="m 152.736,83.231 c 1.377,-2.453 5.639,-8.48 9.98,-7.003 2.75,0.935 3.293,3.993 3.736,6.693 0.588,3.591 -0.471,10.694 -1.389,13.26 -0.881,2.467 -3.533,7.23 -5.266,9.045 -2.129,2.225 -4.775,9.324 -5.193,10.061 -0.658,1.162 -1.535,2.911 -4.121,2.692 -2.854,-0.244 -4.584,-1.85 -5.857,-2.121 -3.142,-0.666 4.53,-26.242 8.11,-32.627 z"
         id="SvgjsPath4901" />
      <path
         style="opacity:1;fill:#c27b55"
         inkscape:connector-curvature="0"
         stroke-width="none"
         d="m 153.727,101.196 c -0.805,1.096 -1.564,2.131 -1.813,3.048 -0.086,0.311 -0.088,0.962 -0.072,1.488 0.012,0.428 0.113,0.768 0.207,0.76 0.094,-0.008 0.148,-0.36 0.137,-0.791 -0.008,-0.331 -0.008,-0.69 0.01,-0.97 0.174,0.158 0.412,0.293 0.725,0.293 0.182,0 0.385,-0.043 0.609,-0.151 1.109,-0.526 1.492,-1.252 1.828,-1.892 0.289,-0.552 0.543,-1.028 1.209,-1.349 1.213,-0.578 3.041,-2.692 3.447,-4.333 1.096,-4.447 -1.908,-10.005 -2.338,-10.767 0.217,-0.544 0.43,-1.049 0.619,-1.479 0.244,-0.549 0.559,-1.208 0.93,-1.893 0.73,1.46 4,8.361 3.049,13.017 -0.896,4.387 -4.9,9.539 -6.289,11.218 -0.258,0.313 -0.418,0.624 -0.352,0.7 0.066,0.074 0.338,-0.109 0.598,-0.423 1.406,-1.692 5.449,-6.862 6.379,-11.409 0.07,-0.35 0.117,-0.708 0.146,-1.075 0.197,-0.349 1.459,-2.676 1.791,-5.791 0.422,-3.961 -0.555,-9.772 -0.744,-10.845 0.473,-0.042 0.814,0.156 1.051,0.385 0.287,0.281 0.486,0.577 0.572,0.535 0.086,-0.042 0.027,-0.402 -0.238,-0.707 -0.363,-0.417 -0.988,-0.827 -1.938,-0.484 -2.299,0.83 -4.131,4.045 -5.262,6.599 -0.984,2.218 -2.49,6.313 -2.758,8.467 -0.072,0.576 0.045,1.39 0.17,2.251 0.135,0.945 0.273,1.924 0.141,2.504 -0.205,0.901 -1.023,2.014 -1.814,3.094 z m 5.707,-18.409 c 0.611,-1.075 1.361,-2.173 2.211,-2.995 0.488,0.98 3.32,7.141 1.145,14.28 -0.093,-4.801 -2.911,-10.426 -3.356,-11.285 z m -7.164,21.488 c 0.254,-0.829 0.998,-1.846 1.721,-2.832 0.816,-1.111 1.658,-2.26 1.885,-3.242 0.148,-0.66 0.004,-1.679 -0.137,-2.664 -0.115,-0.795 -0.23,-1.617 -0.166,-2.134 0.068,-0.563 0.227,-1.266 0.438,-2.031 0.691,0.561 3.449,3.299 0.965,9.562 -0.191,0.14 -0.375,0.263 -0.543,0.343 -0.771,0.369 -1.074,0.946 -1.369,1.505 -0.326,0.618 -0.662,1.258 -1.666,1.733 -0.677,0.321 -1.019,-0.076 -1.128,-0.24 z"
         id="SvgjsPath4902" />
    </g>
    <g
       id="svga-group-faceshape-single"
       transform="matrix(2.2231967,0,0,2.2231967,29.279908,506.76053)">
      <path
         id="SvgjsPath4403"
         d="M 100.002,0.867 C 66.384,0.92 39.082,28.536 39.134,62.56 c 0.009,5.403 0.704,10.643 2.002,15.634 l 10e-4,0 c 0.012,0.054 8.341,20.48 10.463,33.205 2.38,14.276 10.462,30.232 16.302,35.786 6.052,5.756 20.281,14.682 32.099,14.682 11.267,0 26.046,-8.926 32.099,-14.682 5.84,-5.554 13.922,-21.51 16.302,-35.786 2.122,-12.725 10.452,-33.151 10.463,-33.205 l 0.002,0 c 1.298,-4.992 1.994,-10.231 2.002,-15.634 C 160.923,28.536 133.62,0.92 100.002,0.867 Z"
         stroke-width="none"
         inkscape:connector-curvature="0"
         style="opacity:1;fill:#f0c7b1" />
      <path
         id="SvgjsPath4404"
         d="m 136.901,13.53 c 12.866,11.318 21.063,28.416 21.036,47.539 -0.009,5.403 -0.671,10.642 -1.906,15.634 l -0.001,0 c -0.011,0.054 -7.939,20.48 -9.959,33.205 -2.267,14.277 -9.959,30.233 -15.517,35.786 -5.761,5.757 -19.828,14.683 -30.552,14.683 -11.249,0 -24.792,-8.926 -30.552,-14.683 C 63.892,140.141 56.2,124.185 53.934,109.908 51.914,97.184 43.986,76.758 43.975,76.703 l -0.001,0 C 42.738,71.711 42.076,66.472 42.068,61.069 42.04,41.947 50.236,24.851 63.101,13.532 48.519,24.809 39.104,42.574 39.134,62.56 c 0.009,5.403 0.704,10.643 2.002,15.634 l 10e-4,0 c 0.012,0.054 8.341,20.48 10.463,33.205 2.38,14.276 10.462,30.232 16.302,35.786 6.052,5.756 20.281,14.682 32.099,14.682 11.267,0 26.046,-8.926 32.099,-14.682 5.84,-5.554 13.922,-21.51 16.302,-35.786 2.122,-12.725 10.452,-33.151 10.463,-33.205 l 0.002,0 c 1.298,-4.992 1.994,-10.231 2.002,-15.634 0.032,-19.987 -9.384,-37.754 -23.968,-49.03 z"
         stroke-width="none"
         inkscape:connector-curvature="0"
         style="opacity:1;fill:#e8b9a0" />
      <path
         id="SvgjsPath4405"
         d="M 100.002,0.867 C 66.384,0.92 39.082,28.536 39.134,62.56 c 0.009,5.403 0.704,10.643 2.002,15.634 l 10e-4,0 c 0.012,0.054 8.341,20.48 10.463,33.205 2.38,14.276 10.462,30.232 16.302,35.786 6.052,5.756 20.281,14.682 32.099,14.682 11.267,0 26.046,-8.926 32.099,-14.682 5.84,-5.554 13.922,-21.51 16.302,-35.786 2.122,-12.725 10.452,-33.151 10.463,-33.205 l 0.002,0 c 1.298,-4.992 1.994,-10.231 2.002,-15.634 C 160.923,28.536 133.62,0.92 100.002,0.867 Z"
         inkscape:connector-curvature="0"
         style="opacity:1;fill:none;stroke:#c27b55;stroke-width:1.5" />
    </g>
    <g
       id="svga-group-mouth-single"
       transform="matrix(2.2231967,0,0,2.2231967,29.279908,506.76053)">
      <path
         inkscape:connector-curvature="0"
         style="opacity:1;fill:url(#SvgjsLinearGradient4439)"
         d="m 100.389,141.808 c -3.458,0 -4.907,-2.678 -4.907,-2.678 l 9.74,-0.188 c 0,-0.001 -1.789,2.866 -4.833,2.866 z"
         id="SvgjsPath4438" />
      <path
         style="opacity:1;fill:#c27b55"
         inkscape:connector-curvature="0"
         stroke-width="none"
         d="m 98.82,139.206 c -1.781,0 -3.136,-0.171 -3.231,-0.184 -0.146,-0.02 -0.248,-0.146 -0.228,-0.282 0.02,-0.138 0.157,-0.227 0.301,-0.214 0.04,0.006 6.084,0.5 9.357,-0.195 0.156,-0.03 0.289,0.057 0.321,0.189 0.031,0.135 -0.06,0.269 -0.202,0.299 -1.409,0.299 -5.042,0.387 -6.318,0.387 z m -14.429,-5.382 c -0.365,-0.663 4.097,0.111 6.79,-0.551 2.98,-0.732 6.101,0.208 9.133,0.479 2.382,0.213 4.838,-0.975 7.191,-0.436 3.261,0.747 8.236,-0.196 7.843,0.594 -0.273,0.548 -4.893,1.05 -7.524,0.604 -2.301,-0.39 -4.683,0.556 -7.006,0.73 -2.885,0.217 -5.767,-1.385 -8.614,-0.933 -3.282,0.521 -7.503,0.077 -7.813,-0.487 z"
         id="SvgjsPath4442" />
    </g>
    <path
       inkscape:connector-curvature="0"
       style="opacity:1;fill:url(#SvgjsRadialGradient4266)"
       d="m 164.76596,691.62378 c -0.48021,6.13602 3.73942,13.42366 27.77217,15.48234 21.2382,1.81858 30.27994,-1.68518 30.90911,-8.67491 0.62916,-6.98973 -7.57443,-15.53348 -28.63478,-16.63396 -18.74377,-0.9782 -29.49959,2.83013 -30.0465,9.82653 z"
       id="SvgjsPath4265" />
    <g
       id="svga-group-eyesiris-left"
       transform="matrix(2.2231967,0,0,2.2231967,30.391506,507.31633)">
      <path
         id="SvgjsPath4809"
         d="m 80,84 c 0,3.313 -2.687,6 -6,6 -3.313,0 -6,-2.687 -6,-6 l 0,0 c 0,-3.314 2.687,-6 6,-6 3.313,-0.001 6,2.686 6,6 l 0,0 z"
         stroke-width="none"
         inkscape:connector-curvature="0"
         style="opacity:1;fill:#4d3623" />
      <path
         id="SvgjsPath4810"
         d="m 73.328,78.066 c -0.023,0.003 -0.047,0.006 -0.071,0.009 0.029,0.135 0.057,0.271 0.085,0.406 -0.006,-0.137 -0.009,-0.277 -0.014,-0.415 z m 0.013,0.414 c 0.07,1.972 0.185,3.729 0.517,4.364 0.175,-0.696 -0.123,-2.43 -0.517,-4.364 z m 0.518,4.365 c -0.043,0.167 -0.108,0.281 -0.208,0.319 -0.1,0.038 -0.226,-0.006 -0.368,-0.103 0.041,0.167 0.037,0.297 -0.036,0.378 -0.072,0.081 -0.201,0.101 -0.373,0.078 0.113,0.13 0.171,0.249 0.146,0.353 -0.027,0.104 -0.134,0.182 -0.293,0.242 0.159,0.063 0.266,0.141 0.291,0.245 0.025,0.104 -0.033,0.223 -0.145,0.352 0.17,-0.021 0.301,10e-4 0.371,0.082 0.071,0.081 0.075,0.212 0.035,0.379 0.141,-0.097 0.265,-0.139 0.365,-0.1 0.101,0.038 0.166,0.152 0.206,0.32 0.081,-0.152 0.171,-0.249 0.28,-0.26 0.104,-0.014 0.216,0.059 0.329,0.188 10e-4,-0.172 0.037,-0.299 0.127,-0.36 0.088,-0.061 0.219,-0.049 0.379,0.013 -0.078,-0.152 -0.105,-0.281 -0.055,-0.377 0.05,-0.095 0.173,-0.146 0.344,-0.166 -0.141,-0.099 -0.227,-0.2 -0.225,-0.308 0,-0.108 0.084,-0.209 0.227,-0.306 -0.17,-0.021 -0.291,-0.072 -0.342,-0.167 -0.049,-0.095 -0.022,-0.225 0.058,-0.377 -0.162,0.06 -0.292,0.072 -0.38,0.011 -0.089,-0.061 -0.125,-0.188 -0.125,-0.36 -0.112,0.128 -0.224,0.199 -0.33,0.185 -0.108,-0.014 -0.199,-0.108 -0.278,-0.261 z m 0.607,0.075 c 0.479,-0.535 1.021,-2.209 1.57,-4.104 -0.854,1.777 -1.569,3.386 -1.57,4.104 z m 1.569,-4.104 c 0.06,-0.122 0.121,-0.246 0.178,-0.37 -0.021,-0.007 -0.042,-0.017 -0.063,-0.026 -0.038,0.133 -0.076,0.266 -0.115,0.396 z m -1.063,4.454 c 0.672,-0.252 1.931,-1.483 3.297,-2.905 -1.581,1.176 -2.963,2.269 -3.297,2.905 z m 3.297,-2.905 c 0.1,-0.075 0.203,-0.15 0.305,-0.225 -0.014,-0.018 -0.03,-0.033 -0.042,-0.049 -0.087,0.09 -0.174,0.183 -0.263,0.274 z m -3.015,3.449 c 0.713,0.088 2.4,-0.417 4.272,-1.041 -1.948,0.308 -3.678,0.633 -4.272,1.041 z m 4.272,-1.04 c 0.11,-0.016 0.225,-0.034 0.337,-0.052 -0.004,-0.019 -0.009,-0.038 -0.014,-0.057 -0.107,0.036 -0.217,0.073 -0.323,0.109 z m -4.273,1.653 c 0.59,0.412 2.318,0.747 4.262,1.063 -1.865,-0.633 -3.548,-1.148 -4.262,-1.063 z m 4.263,1.063 c 0.095,0.033 0.191,0.067 0.285,0.098 0.005,-0.017 0.009,-0.033 0.012,-0.05 -0.097,-0.015 -0.198,-0.031 -0.297,-0.048 z m -4.551,-0.52 c 0.333,0.637 1.708,1.738 3.282,2.924 -1.359,-1.43 -2.609,-2.668 -3.282,-2.924 z m 3.283,2.922 c 0.059,0.062 0.12,0.126 0.179,0.189 0.01,-0.012 0.019,-0.021 0.03,-0.032 -0.07,-0.052 -0.142,-0.105 -0.209,-0.157 z M 74.46,85.317 c -0.003,0.719 0.703,2.331 1.547,4.113 -0.539,-1.897 -1.07,-3.575 -1.547,-4.113 z m 1.547,4.114 c 0.021,0.075 0.043,0.152 0.063,0.229 0.015,-0.006 0.025,-0.01 0.039,-0.014 -0.033,-0.072 -0.068,-0.146 -0.102,-0.215 z m -2.156,-4.042 c -0.336,0.637 -0.461,2.39 -0.542,4.361 0.404,-1.93 0.713,-3.663 0.542,-4.361 z m -0.542,4.361 c -0.017,0.075 -0.031,0.151 -0.047,0.228 0.014,0.003 0.025,0.003 0.039,0.005 0.002,-0.077 0.006,-0.157 0.008,-0.233 z M 73.28,85.169 c -0.596,0.407 -1.521,1.904 -2.508,3.61 1.254,-1.52 2.334,-2.912 2.508,-3.61 z m -2.508,3.61 c -0.053,0.063 -0.108,0.13 -0.162,0.193 0.013,0.008 0.024,0.014 0.038,0.024 0.04,-0.072 0.083,-0.145 0.124,-0.217 z m 2.103,-4.069 c -0.716,0.083 -2.231,0.978 -3.898,2.029 1.818,-0.762 3.418,-1.491 3.898,-2.029 z m -3.899,2.031 c -0.086,0.036 -0.174,0.072 -0.263,0.11 0.006,0.013 0.015,0.027 0.023,0.04 0.081,-0.049 0.161,-0.1 0.24,-0.15 z m 3.752,-2.628 c -0.671,-0.257 -2.429,-0.168 -4.395,-0.011 1.964,0.168 3.722,0.265 4.395,0.011 z m -4.395,-0.011 c -0.107,-0.01 -0.217,-0.02 -0.323,-0.029 0,0.019 -0.002,0.038 0,0.056 0.109,-0.01 0.218,-0.019 0.323,-0.027 z m 4.542,-0.583 c -0.473,-0.539 -2.069,-1.277 -3.881,-2.051 1.659,1.06 3.169,1.964 3.881,2.051 z m -3.881,-2.051 c -0.104,-0.067 -0.209,-0.134 -0.315,-0.201 -0.009,0.019 -0.019,0.038 -0.029,0.055 0.116,0.049 0.232,0.097 0.344,0.146 z m 4.29,1.593 c -0.169,-0.698 -1.241,-2.094 -2.485,-3.623 0.976,1.712 1.893,3.213 2.485,3.623 z m -2.485,-3.623 c -0.067,-0.115 -0.132,-0.232 -0.199,-0.349 -0.019,0.013 -0.039,0.026 -0.056,0.039 0.084,0.103 0.172,0.207 0.255,0.31 z"
         style="opacity:0.7;fill:url(#SvgjsRadialGradient4811)"
         inkscape:connector-curvature="0" />
      <path
         id="SvgjsPath4814"
         d="m 74.886,78.086 c -0.024,-0.003 -0.047,-0.007 -0.07,-0.01 -0.007,0.138 -0.016,0.277 -0.024,0.414 0.03,-0.134 0.063,-0.27 0.094,-0.404 z m -0.095,0.403 c -0.442,1.922 -0.787,3.649 -0.629,4.35 0.349,-0.628 0.509,-2.38 0.629,-4.35 z m -0.63,4.35 c -0.084,0.15 -0.176,0.243 -0.283,0.254 -0.106,0.01 -0.216,-0.064 -0.327,-0.195 -0.004,0.171 -0.042,0.297 -0.133,0.356 -0.09,0.059 -0.221,0.045 -0.38,-0.021 0.076,0.155 0.101,0.285 0.049,0.378 -0.053,0.094 -0.176,0.142 -0.345,0.158 0.137,0.101 0.22,0.204 0.217,0.312 -0.002,0.107 -0.089,0.207 -0.231,0.302 0.169,0.024 0.29,0.079 0.337,0.174 0.048,0.096 0.018,0.225 -0.064,0.375 0.161,-0.057 0.292,-0.065 0.379,-0.002 0.087,0.063 0.12,0.19 0.116,0.363 0.117,-0.125 0.229,-0.196 0.337,-0.179 0.105,0.014 0.194,0.113 0.27,0.268 0.045,-0.167 0.113,-0.279 0.216,-0.315 0.101,-0.036 0.225,0.01 0.363,0.111 -0.036,-0.167 -0.029,-0.299 0.044,-0.378 0.073,-0.079 0.205,-0.096 0.376,-0.072 -0.111,-0.132 -0.168,-0.251 -0.138,-0.355 0.028,-0.104 0.136,-0.18 0.299,-0.237 -0.16,-0.064 -0.263,-0.145 -0.288,-0.25 -0.023,-0.105 0.037,-0.223 0.154,-0.349 -0.172,0.016 -0.301,-0.006 -0.37,-0.088 -0.07,-0.082 -0.072,-0.214 -0.028,-0.379 -0.142,0.094 -0.268,0.134 -0.367,0.093 -0.103,-0.041 -0.165,-0.156 -0.203,-0.324 z m 0.568,0.231 c 0.601,-0.394 1.557,-1.871 2.578,-3.558 -1.285,1.495 -2.391,2.863 -2.578,3.558 z m 2.578,-3.559 c 0.089,-0.102 0.18,-0.206 0.268,-0.311 -0.019,-0.013 -0.036,-0.028 -0.055,-0.042 -0.071,0.119 -0.142,0.238 -0.213,0.353 z m -2.18,4.027 c 0.715,-0.07 2.25,-0.934 3.937,-1.953 -1.833,0.727 -3.45,1.425 -3.937,1.953 z m 3.936,-1.954 c 0.117,-0.046 0.235,-0.092 0.354,-0.138 -0.01,-0.021 -0.021,-0.04 -0.028,-0.059 -0.108,0.066 -0.216,0.133 -0.326,0.197 z m -3.804,2.553 c 0.666,0.27 2.426,0.218 4.395,0.101 -1.961,-0.208 -3.716,-0.342 -4.395,-0.101 z m 4.395,0.1 c 0.112,0.013 0.226,0.025 0.339,0.037 0,-0.02 0.001,-0.039 0.002,-0.058 -0.114,0.007 -0.229,0.014 -0.341,0.021 z M 75.1,84.729 c 0.462,0.551 2.046,1.321 3.842,2.129 -1.639,-1.095 -3.131,-2.027 -3.842,-2.129 z m 3.841,2.129 c 0.083,0.057 0.167,0.114 0.25,0.168 0.009,-0.015 0.017,-0.03 0.025,-0.045 -0.09,-0.039 -0.184,-0.081 -0.275,-0.123 z M 74.68,85.179 c 0.156,0.701 1.2,2.12 2.414,3.674 -0.943,-1.734 -1.83,-3.254 -2.414,-3.674 z m 2.414,3.671 c 0.042,0.075 0.083,0.153 0.125,0.229 0.012,-0.009 0.024,-0.016 0.037,-0.024 -0.054,-0.068 -0.109,-0.138 -0.162,-0.205 z m -2.991,-3.467 c -0.188,0.693 0.076,2.433 0.43,4.373 -0.031,-1.972 -0.109,-3.73 -0.43,-4.373 z m 0.429,4.373 c 0.001,0.078 0.003,0.158 0.003,0.238 0.014,-0.002 0.027,-0.004 0.041,-0.004 -0.014,-0.077 -0.029,-0.157 -0.044,-0.234 z m -1.036,-4.462 c -0.49,0.528 -1.064,2.189 -1.652,4.072 0.889,-1.759 1.637,-3.353 1.652,-4.072 z m -1.653,4.072 c -0.035,0.068 -0.07,0.138 -0.104,0.208 0.012,0.006 0.023,0.009 0.036,0.015 0.022,-0.073 0.046,-0.15 0.068,-0.223 z M 73,84.934 c -0.68,0.239 -1.962,1.446 -3.357,2.838 1.607,-1.144 3.009,-2.209 3.357,-2.838 z m -3.356,2.838 c -0.067,0.047 -0.137,0.098 -0.205,0.145 0.01,0.011 0.02,0.02 0.029,0.032 0.057,-0.059 0.117,-0.117 0.176,-0.177 z m 3.084,-3.387 c -0.713,-0.104 -2.407,0.368 -4.291,0.952 1.955,-0.266 3.688,-0.556 4.291,-0.952 z m -4.291,0.954 c -0.092,0.013 -0.187,0.024 -0.283,0.039 0.003,0.015 0.008,0.03 0.013,0.044 0.091,-0.026 0.181,-0.056 0.27,-0.083 z m 4.304,-1.567 c -0.582,-0.423 -2.303,-0.792 -4.242,-1.149 1.854,0.671 3.526,1.22 4.242,1.149 z m -4.242,-1.149 c -0.101,-0.037 -0.205,-0.075 -0.305,-0.112 -0.005,0.019 -0.011,0.037 -0.015,0.054 0.109,0.019 0.216,0.039 0.32,0.058 z m 4.539,0.612 c -0.318,-0.643 -1.668,-1.769 -3.219,-2.986 1.328,1.455 2.553,2.719 3.219,2.986 z m -3.22,-2.985 c -0.083,-0.091 -0.167,-0.183 -0.251,-0.275 -0.014,0.016 -0.029,0.031 -0.042,0.046 0.099,0.076 0.198,0.152 0.293,0.229 z m 3.733,2.649 c 0.017,-0.718 -0.656,-2.344 -1.464,-4.142 0.5,1.906 0.998,3.593 1.464,4.142 z m -1.464,-4.142 c -0.034,-0.128 -0.067,-0.259 -0.101,-0.389 -0.021,0.007 -0.043,0.015 -0.063,0.023 0.054,0.122 0.11,0.245 0.164,0.366 z"
         style="opacity:0.4;fill:url(#SvgjsRadialGradient4815)"
         inkscape:connector-curvature="0" />
      <path
         id="SvgjsPath4818"
         d="m 76.354,84 c 0,1.3 -1.053,2.353 -2.353,2.353 -1.299,0 -2.354,-1.053 -2.354,-2.353 0,-1.299 1.055,-2.354 2.354,-2.354 1.3,0 2.353,1.054 2.353,2.354 z"
         stroke-width="none"
         inkscape:connector-curvature="0"
         style="opacity:1;fill:#4d3623" />
      <path
         id="SvgjsPath4819"
         d="m 76.354,84 c 0,1.3 -1.053,2.353 -2.353,2.353 -1.299,0 -2.354,-1.053 -2.354,-2.353 0,-1.299 1.055,-2.354 2.354,-2.354 1.3,0 2.353,1.054 2.353,2.354 z"
         stroke-width="none"
         inkscape:connector-curvature="0"
         style="opacity:0.9;fill:#000000" />
      <path
         id="SvgjsPath4820"
         d="m 70.717,86.748 c 0.449,-0.302 1.059,-0.18 1.36,0.268 0.301,0.449 0.182,1.059 -0.268,1.36 -0.45,0.303 -1.059,0.183 -1.36,-0.267 -0.301,-0.449 -0.181,-1.06 0.268,-1.361 l 0,0 z"
         style="opacity:0.5;fill:url(#SvgjsLinearGradient4821)"
         inkscape:connector-curvature="0" />
      <path
         id="SvgjsPath4824"
         d="m 75.86,83.672 c -0.251,0.374 -0.969,0.331 -1.606,-0.096 -0.638,-0.427 -0.95,-1.078 -0.7,-1.451 l 0,-0.001 c 0.25,-0.374 0.969,-0.331 1.605,0.097 0.639,0.426 0.951,1.076 0.701,1.451 0,0 0,0 0,0 z"
         style="opacity:0.5;fill:url(#SvgjsLinearGradient4825)"
         inkscape:connector-curvature="0" />
      <path
         id="SvgjsPath4828"
         d="m 78.716,82.673 c -0.568,0.873 -2.036,0.925 -3.275,0.117 -1.24,-0.808 -1.784,-2.17 -1.215,-3.043 0.568,-0.872 2.036,-0.924 3.275,-0.117 1.239,0.809 1.783,2.172 1.215,3.043 l 0,0 z"
         style="opacity:0.75;fill:url(#SvgjsLinearGradient4829)"
         inkscape:connector-curvature="0" />
    </g>
    <g
       id="svga-group-eyesfront-left"
       transform="matrix(2.2231967,0,0,2.2231967,29.279908,506.76053)">
      <path
         id="SvgjsPath4290"
         d="m 55.772,86.694 c 1.203,13.754 10.653,24.163 21.106,23.249 C 87.331,109.028 94.83,97.136 93.627,83.382 92.424,69.628 82.974,59.218 72.521,60.133 62.067,61.048 54.569,72.94 55.772,86.694 Z m 5.17,-3.542 c 0.246,-3.146 5.084,-4.86 13.516,-4.419 9.473,0.495 13.163,4.338 12.88,7.482 -0.283,3.144 -4.351,4.72 -13.903,3.902 C 62.624,89.19 60.726,85.912 60.942,83.152 Z"
         stroke-width="none"
         inkscape:connector-curvature="0"
         style="opacity:1;fill:#f0c7b1" />
      <path
         id="SvgjsPath4291"
         d="M 57.798,85.194 C 58.394,92.905 68.061,98.532 77.68,97.652 87.296,96.767 95.215,90.93 94.514,83.227 93.817,75.528 85.461,70.003 75.841,70.885 66.221,71.771 56.98,74.647 57.798,85.194 Z m 3.144,-2.042 c 0.246,-3.146 5.084,-4.86 13.516,-4.419 9.473,0.495 13.163,4.338 12.88,7.482 -0.283,3.144 -4.351,4.72 -13.903,3.902 C 62.624,89.19 60.726,85.912 60.942,83.152 Z"
         style="opacity:1;fill:url(#SvgjsRadialGradient4292)"
         inkscape:connector-curvature="0" />
      <path
         id="SvgjsPath4296"
         d="m 60.942,83.152 c -0.216,2.76 1.682,6.038 12.492,6.964 9.553,0.818 13.62,-0.758 13.903,-3.902 0.283,-3.144 -3.407,-6.987 -12.88,-7.482 -8.431,-0.44 -13.269,1.273 -13.515,4.42 z"
         style="opacity:1;fill:url(#SvgjsRadialGradient4297)"
         inkscape:connector-curvature="0" />
      <path
         id="SvgjsPath4300"
         d="m 85.569,79.486 c -1.025,-0.673 -3.285,-1.602 -3.285,-1.602 0,0 2.571,0.588 3.59,1.279 1.019,0.691 2.082,2.366 2.082,2.366 0,0 -1.362,-1.37 -2.387,-2.043 z M 67.02,77.131 c 0,0 -2.657,-0.034 -4.546,1.136 -1.734,1.074 -2.448,2.685 -2.448,2.685 0,0 1.649,-1.725 2.813,-2.501 1.088,-0.726 4.181,-1.32 4.181,-1.32 z"
         stroke-width="none"
         inkscape:connector-curvature="0"
         style="opacity:1;fill:#c27b55" />
      <path
         id="SvgjsPath4301"
         d="m 74.758,78.929 c -6.156,-0.216 -15.613,0.376 -13.409,6.209 -3.203,-1.934 -0.741,-8.81 13.992,-7.583 7.137,0.594 15.623,4.275 11.685,9.764 1.247,-5.737 -6.226,-8.177 -12.268,-8.39 z m 10.865,10.083 -3.021,0.956 c -5.294,0.085 -8.251,-0.28 -13.196,-0.504 -2.279,-0.104 -4.328,-1.226 -6.996,-2.467 1.537,1.698 4.094,3.061 6.943,3.226 4.789,0.278 8.032,0.342 13.408,0.382 l 2.862,-1.593 z"
         stroke-width="none"
         inkscape:connector-curvature="0"
         style="opacity:1;fill:#5fa2a5" />
    </g>
    <path
       inkscape:connector-curvature="0"
       style="opacity:1;fill:url(#SvgjsRadialGradient4274)"
       d="m 338.43542,691.62378 c 0.48021,6.13602 -3.73942,13.42366 -27.77218,15.48234 -21.23819,1.81858 -30.27993,-1.68518 -30.9091,-8.67491 -0.62916,-6.98973 7.57443,-15.53348 28.63477,-16.63396 18.74378,-0.9782 29.4996,2.83013 30.04651,9.82653 z"
       id="SvgjsPath4273" />
    <g
       id="svga-group-eyesiriscontrol-right"
       transform="matrix(2.2231967,0,0,2.2231967,28.16831,507.31633)">
      <g
         id="svga-group-eyesiris-right">
        <path
           style="opacity:1;fill:#4d3623"
           inkscape:connector-curvature="0"
           stroke-width="none"
           d="m 132,84 c 0,3.313 -2.687,6 -5.999,6 C 122.688,90 120,87.313 120,84 l 0,0 c 0,-3.314 2.688,-6 6.001,-6 3.312,-0.001 5.999,2.686 5.999,6 l 0,0 z"
           id="SvgjsPath4832" />
        <path
           inkscape:connector-curvature="0"
           style="opacity:0.7;fill:url(#SvgjsRadialGradient4834)"
           d="m 125.328,78.066 c -0.023,0.003 -0.047,0.006 -0.071,0.009 0.029,0.135 0.058,0.271 0.085,0.406 -0.006,-0.137 -0.009,-0.277 -0.014,-0.415 z m 0.013,0.414 c 0.069,1.972 0.185,3.729 0.518,4.364 0.174,-0.696 -0.124,-2.43 -0.518,-4.364 z m 0.517,4.365 c -0.042,0.167 -0.108,0.281 -0.207,0.319 -0.101,0.038 -0.226,-0.006 -0.367,-0.103 0.04,0.167 0.036,0.297 -0.036,0.378 -0.072,0.081 -0.201,0.101 -0.372,0.078 0.112,0.13 0.171,0.249 0.146,0.353 -0.028,0.104 -0.134,0.182 -0.293,0.242 0.158,0.063 0.265,0.141 0.29,0.245 0.025,0.104 -0.032,0.223 -0.145,0.352 0.17,-0.021 0.3,10e-4 0.37,0.082 0.071,0.081 0.075,0.212 0.035,0.379 0.141,-0.097 0.266,-0.139 0.365,-0.1 0.102,0.038 0.166,0.152 0.206,0.32 0.08,-0.152 0.172,-0.249 0.279,-0.26 0.105,-0.014 0.217,0.059 0.329,0.188 0.002,-0.172 0.037,-0.299 0.128,-0.36 0.087,-0.061 0.219,-0.049 0.379,0.013 -0.078,-0.152 -0.104,-0.281 -0.056,-0.377 0.051,-0.095 0.174,-0.146 0.345,-0.166 -0.141,-0.099 -0.228,-0.2 -0.225,-0.308 -10e-4,-0.108 0.084,-0.209 0.227,-0.306 -0.171,-0.021 -0.291,-0.072 -0.342,-0.167 -0.05,-0.095 -0.022,-0.225 0.057,-0.377 -0.161,0.06 -0.291,0.072 -0.38,0.011 -0.089,-0.061 -0.124,-0.188 -0.125,-0.36 -0.111,0.128 -0.224,0.199 -0.33,0.185 -0.107,-0.014 -0.198,-0.108 -0.278,-0.261 z m 0.608,0.075 c 0.479,-0.535 1.021,-2.209 1.569,-4.104 -0.853,1.777 -1.567,3.386 -1.569,4.104 z m 1.569,-4.104 c 0.06,-0.122 0.121,-0.246 0.179,-0.37 -0.021,-0.007 -0.042,-0.017 -0.063,-0.026 -0.039,0.133 -0.077,0.266 -0.116,0.396 z m -1.063,4.454 c 0.673,-0.252 1.932,-1.483 3.298,-2.905 -1.582,1.176 -2.963,2.269 -3.298,2.905 z m 3.298,-2.905 c 0.1,-0.075 0.202,-0.15 0.305,-0.225 -0.015,-0.018 -0.03,-0.033 -0.042,-0.049 -0.088,0.09 -0.175,0.183 -0.263,0.274 z m -3.015,3.449 c 0.713,0.088 2.399,-0.417 4.271,-1.041 -1.948,0.308 -3.678,0.633 -4.271,1.041 z m 4.271,-1.04 c 0.11,-0.016 0.225,-0.034 0.337,-0.052 -0.005,-0.019 -0.009,-0.038 -0.014,-0.057 -0.107,0.036 -0.217,0.073 -0.323,0.109 z m -4.273,1.653 c 0.591,0.412 2.318,0.747 4.263,1.063 -1.866,-0.633 -3.549,-1.148 -4.263,-1.063 z m 4.263,1.063 c 0.095,0.033 0.19,0.067 0.285,0.098 0.005,-0.017 0.009,-0.033 0.013,-0.05 -0.098,-0.015 -0.2,-0.031 -0.298,-0.048 z m -4.551,-0.52 c 0.332,0.637 1.708,1.738 3.282,2.924 -1.358,-1.43 -2.609,-2.668 -3.282,-2.924 z m 3.283,2.922 c 0.059,0.062 0.119,0.126 0.178,0.189 0.01,-0.012 0.02,-0.021 0.031,-0.032 -0.07,-0.052 -0.142,-0.105 -0.209,-0.157 z m -3.787,-2.575 c -0.003,0.719 0.702,2.331 1.547,4.113 -0.54,-1.897 -1.071,-3.575 -1.547,-4.113 z m 1.547,4.114 c 0.021,0.075 0.043,0.152 0.063,0.229 0.015,-0.006 0.026,-0.01 0.039,-0.014 -0.034,-0.072 -0.069,-0.146 -0.102,-0.215 z m -2.157,-4.042 c -0.336,0.637 -0.461,2.39 -0.542,4.361 0.404,-1.93 0.713,-3.663 0.542,-4.361 z m -0.542,4.361 c -0.017,0.075 -0.031,0.151 -0.047,0.228 0.014,0.003 0.024,0.003 0.039,0.005 0.002,-0.077 0.006,-0.157 0.008,-0.233 z m -0.03,-4.581 c -0.596,0.407 -1.521,1.904 -2.508,3.61 1.255,-1.52 2.334,-2.912 2.508,-3.61 z m -2.508,3.61 c -0.052,0.063 -0.107,0.13 -0.161,0.193 0.013,0.008 0.024,0.014 0.037,0.024 0.041,-0.072 0.084,-0.145 0.124,-0.217 z m 2.103,-4.069 c -0.716,0.083 -2.23,0.978 -3.897,2.029 1.818,-0.762 3.418,-1.491 3.897,-2.029 z m -3.897,2.031 c -0.087,0.036 -0.175,0.072 -0.263,0.11 0.006,0.013 0.014,0.027 0.023,0.04 0.08,-0.049 0.16,-0.1 0.24,-0.15 z m 3.752,-2.628 c -0.672,-0.257 -2.43,-0.168 -4.396,-0.011 1.965,0.168 3.722,0.265 4.396,0.011 z m -4.396,-0.011 c -0.106,-0.01 -0.217,-0.02 -0.322,-0.029 -10e-4,0.019 -0.003,0.038 -10e-4,0.056 0.109,-0.01 0.218,-0.019 0.323,-0.027 z m 4.543,-0.583 c -0.474,-0.539 -2.069,-1.277 -3.882,-2.051 1.659,1.06 3.169,1.964 3.882,2.051 z m -3.882,-2.051 c -0.104,-0.067 -0.21,-0.134 -0.315,-0.201 -0.009,0.019 -0.019,0.038 -0.028,0.055 0.115,0.049 0.232,0.097 0.343,0.146 z m 4.29,1.593 c -0.169,-0.698 -1.241,-2.094 -2.485,-3.623 0.976,1.712 1.893,3.213 2.485,3.623 z m -2.485,-3.623 c -0.067,-0.115 -0.133,-0.232 -0.198,-0.349 -0.019,0.013 -0.039,0.026 -0.057,0.039 0.085,0.103 0.172,0.207 0.255,0.31 z"
           id="SvgjsPath4833" />
        <path
           inkscape:connector-curvature="0"
           style="opacity:0.4;fill:url(#SvgjsRadialGradient4838)"
           d="m 126.886,78.086 c -0.024,-0.003 -0.047,-0.007 -0.07,-0.01 -0.008,0.138 -0.016,0.277 -0.024,0.414 0.029,-0.134 0.062,-0.27 0.094,-0.404 z m -0.095,0.403 c -0.443,1.922 -0.787,3.649 -0.63,4.35 0.35,-0.628 0.51,-2.38 0.63,-4.35 z m -0.63,4.35 c -0.084,0.15 -0.177,0.243 -0.283,0.254 -0.106,0.01 -0.216,-0.064 -0.327,-0.195 -0.004,0.171 -0.042,0.297 -0.133,0.356 -0.09,0.059 -0.221,0.045 -0.38,-0.021 0.075,0.155 0.101,0.285 0.049,0.378 -0.054,0.094 -0.176,0.142 -0.346,0.158 0.138,0.101 0.22,0.204 0.217,0.312 -0.002,0.107 -0.089,0.207 -0.23,0.302 0.17,0.024 0.289,0.079 0.337,0.174 0.048,0.096 0.018,0.225 -0.064,0.375 0.162,-0.057 0.293,-0.065 0.38,-0.002 0.087,0.063 0.12,0.19 0.115,0.363 0.117,-0.125 0.229,-0.196 0.337,-0.179 0.105,0.014 0.194,0.113 0.27,0.268 0.046,-0.167 0.113,-0.279 0.216,-0.315 0.101,-0.036 0.226,0.01 0.363,0.111 -0.035,-0.167 -0.028,-0.299 0.045,-0.378 0.072,-0.079 0.204,-0.096 0.375,-0.072 -0.11,-0.132 -0.168,-0.251 -0.138,-0.355 0.027,-0.104 0.136,-0.18 0.299,-0.237 -0.159,-0.064 -0.263,-0.145 -0.288,-0.25 -0.022,-0.105 0.038,-0.223 0.154,-0.349 -0.172,0.016 -0.302,-0.006 -0.37,-0.088 -0.07,-0.082 -0.072,-0.214 -0.027,-0.379 -0.143,0.094 -0.269,0.134 -0.368,0.093 -0.102,-0.041 -0.166,-0.156 -0.203,-0.324 z m 0.568,0.231 c 0.601,-0.394 1.557,-1.871 2.578,-3.558 -1.285,1.495 -2.391,2.863 -2.578,3.558 z m 2.578,-3.559 c 0.089,-0.102 0.18,-0.206 0.269,-0.311 -0.02,-0.013 -0.037,-0.028 -0.056,-0.042 -0.071,0.119 -0.142,0.238 -0.213,0.353 z m -2.18,4.027 c 0.715,-0.07 2.249,-0.934 3.937,-1.953 -1.833,0.727 -3.45,1.425 -3.937,1.953 z m 3.936,-1.954 c 0.116,-0.046 0.234,-0.092 0.354,-0.138 -0.01,-0.021 -0.021,-0.04 -0.028,-0.059 -0.108,0.066 -0.216,0.133 -0.326,0.197 z m -3.804,2.553 c 0.666,0.27 2.426,0.218 4.396,0.101 -1.963,-0.208 -3.717,-0.342 -4.396,-0.101 z m 4.395,0.1 c 0.111,0.013 0.226,0.025 0.339,0.037 0.001,-0.02 0.001,-0.039 0.002,-0.058 -0.113,0.007 -0.229,0.014 -0.341,0.021 z m -4.554,0.492 c 0.463,0.551 2.046,1.321 3.842,2.129 -1.639,-1.095 -3.131,-2.027 -3.842,-2.129 z m 3.841,2.129 c 0.082,0.057 0.167,0.114 0.25,0.168 0.009,-0.015 0.018,-0.03 0.024,-0.045 -0.089,-0.039 -0.183,-0.081 -0.274,-0.123 z m -4.26,-1.679 c 0.155,0.701 1.199,2.12 2.413,3.674 -0.943,-1.734 -1.829,-3.254 -2.413,-3.674 z m 2.414,3.671 c 0.041,0.075 0.082,0.153 0.124,0.229 0.012,-0.009 0.023,-0.016 0.037,-0.024 -0.054,-0.068 -0.11,-0.138 -0.161,-0.205 z m -2.992,-3.467 c -0.188,0.693 0.076,2.433 0.43,4.373 -0.031,-1.972 -0.109,-3.73 -0.43,-4.373 z m 0.429,4.373 c 0.001,0.078 0.003,0.158 0.003,0.238 0.015,-0.002 0.026,-0.004 0.04,-0.004 -0.013,-0.077 -0.028,-0.157 -0.043,-0.234 z m -1.037,-4.462 c -0.489,0.528 -1.064,2.189 -1.652,4.072 0.89,-1.759 1.637,-3.353 1.652,-4.072 z m -1.652,4.072 c -0.035,0.068 -0.069,0.138 -0.104,0.208 0.012,0.006 0.022,0.009 0.035,0.015 0.023,-0.073 0.047,-0.15 0.069,-0.223 z M 125,84.934 c -0.68,0.239 -1.961,1.446 -3.356,2.838 1.606,-1.144 3.008,-2.209 3.356,-2.838 z m -3.356,2.838 c -0.067,0.047 -0.138,0.098 -0.205,0.145 0.01,0.011 0.02,0.02 0.029,0.032 0.057,-0.059 0.118,-0.117 0.176,-0.177 z m 3.084,-3.387 c -0.713,-0.104 -2.406,0.368 -4.29,0.952 1.954,-0.266 3.688,-0.556 4.29,-0.952 z m -4.29,0.954 c -0.093,0.013 -0.188,0.024 -0.283,0.039 0.004,0.015 0.008,0.03 0.013,0.044 0.09,-0.026 0.18,-0.056 0.27,-0.083 z m 4.303,-1.567 c -0.582,-0.423 -2.303,-0.792 -4.242,-1.149 1.854,0.671 3.526,1.22 4.242,1.149 z m -4.242,-1.149 c -0.101,-0.037 -0.205,-0.075 -0.305,-0.112 -0.006,0.019 -0.011,0.037 -0.015,0.054 0.108,0.019 0.216,0.039 0.32,0.058 z m 4.539,0.612 c -0.318,-0.643 -1.669,-1.769 -3.22,-2.986 1.329,1.455 2.554,2.719 3.22,2.986 z m -3.22,-2.985 c -0.083,-0.091 -0.167,-0.183 -0.251,-0.275 -0.015,0.016 -0.028,0.031 -0.043,0.046 0.099,0.076 0.2,0.152 0.294,0.229 z m 3.733,2.649 c 0.017,-0.718 -0.656,-2.344 -1.464,-4.142 0.501,1.906 0.998,3.593 1.464,4.142 z m -1.464,-4.142 c -0.034,-0.128 -0.067,-0.259 -0.102,-0.389 -0.021,0.007 -0.043,0.015 -0.063,0.023 0.055,0.122 0.111,0.245 0.165,0.366 z"
           id="SvgjsPath4837" />
        <path
           style="opacity:1;fill:#4d3623"
           inkscape:connector-curvature="0"
           stroke-width="none"
           d="m 128.354,84 c 0,1.3 -1.054,2.353 -2.353,2.353 -1.3,0 -2.354,-1.053 -2.354,-2.353 0,-1.299 1.055,-2.354 2.354,-2.354 1.301,0 2.353,1.054 2.353,2.354 z"
           id="SvgjsPath4841" />
        <path
           style="opacity:0.9;fill:#000000"
           inkscape:connector-curvature="0"
           stroke-width="none"
           d="m 128.354,84 c 0,1.3 -1.054,2.353 -2.353,2.353 -1.3,0 -2.354,-1.053 -2.354,-2.353 0,-1.299 1.055,-2.354 2.354,-2.354 1.301,0 2.353,1.054 2.353,2.354 z"
           id="SvgjsPath4842" />
        <path
           inkscape:connector-curvature="0"
           style="opacity:0.5;fill:url(#SvgjsLinearGradient4844)"
           d="m 122.718,86.748 c 0.448,-0.302 1.059,-0.18 1.359,0.268 0.302,0.449 0.183,1.059 -0.268,1.36 -0.45,0.303 -1.059,0.183 -1.359,-0.267 -0.302,-0.449 -0.182,-1.06 0.268,-1.361 l 0,0 z"
           id="SvgjsPath4843" />
        <path
           inkscape:connector-curvature="0"
           style="opacity:0.5;fill:url(#SvgjsLinearGradient4848)"
           d="m 127.859,83.672 c -0.251,0.374 -0.969,0.331 -1.605,-0.096 -0.638,-0.427 -0.95,-1.078 -0.7,-1.451 l 0.001,-0.001 c 0.25,-0.374 0.969,-0.331 1.605,0.097 0.638,0.426 0.95,1.076 0.699,1.451 0,0 0,0 0,0 z"
           id="SvgjsPath4847" />
        <path
           inkscape:connector-curvature="0"
           style="opacity:0.75;fill:url(#SvgjsLinearGradient4852)"
           d="m 130.717,82.673 c -0.569,0.873 -2.036,0.925 -3.276,0.117 -1.239,-0.808 -1.784,-2.17 -1.215,-3.043 0.568,-0.872 2.035,-0.924 3.275,-0.117 1.239,0.809 1.783,2.172 1.216,3.043 l 0,0 z"
           id="SvgjsPath4851" />
      </g>
    </g>
    <g
       id="svga-group-eyesfront-right"
       transform="matrix(2.2231967,0,0,2.2231967,29.279908,506.76053)">
      <path
         id="SvgjsPath4311"
         d="m 127.479,60.133 c -10.453,-0.915 -19.903,9.495 -21.106,23.249 -1.203,13.754 6.296,25.646 16.749,26.561 10.453,0.914 19.903,-9.495 21.106,-23.249 1.204,-13.754 -6.294,-25.646 -16.749,-26.561 z m -0.913,29.983 c -9.553,0.818 -13.62,-0.758 -13.903,-3.902 -0.283,-3.144 3.407,-6.987 12.88,-7.482 8.432,-0.44 13.27,1.273 13.516,4.419 0.215,2.761 -1.682,6.039 -12.493,6.965 z"
         stroke-width="none"
         inkscape:connector-curvature="0"
         style="opacity:1;fill:#f0c7b1" />
      <path
         id="SvgjsPath4312"
         d="m 124.159,70.885 c -9.62,-0.882 -17.976,4.643 -18.673,12.342 -0.701,7.703 7.218,13.54 16.834,14.425 9.619,0.88 19.286,-4.747 19.882,-12.458 0.819,-10.547 -8.423,-13.423 -18.043,-14.309 z m 2.407,19.231 c -9.553,0.818 -13.62,-0.758 -13.903,-3.902 -0.283,-3.144 3.407,-6.987 12.88,-7.482 8.432,-0.44 13.27,1.273 13.516,4.419 0.215,2.761 -1.682,6.039 -12.493,6.965 z"
         style="opacity:1;fill:url(#SvgjsRadialGradient4313)"
         inkscape:connector-curvature="0" />
      <path
         id="SvgjsPath4317"
         d="m 139.059,83.152 c 0.216,2.76 -1.682,6.038 -12.492,6.964 -9.553,0.818 -13.62,-0.758 -13.903,-3.902 -0.283,-3.144 3.407,-6.987 12.88,-7.482 8.431,-0.44 13.269,1.273 13.515,4.42 z"
         style="opacity:1;fill:url(#SvgjsRadialGradient4318)"
         inkscape:connector-curvature="0" />
      <path
         id="SvgjsPath4321"
         d="m 112.045,81.529 c 0,0 1.063,-1.675 2.082,-2.366 1.019,-0.691 3.59,-1.279 3.59,-1.279 0,0 -2.26,0.929 -3.285,1.602 -1.025,0.673 -2.387,2.043 -2.387,2.043 z m 25.116,-3.078 c 1.164,0.776 2.813,2.501 2.813,2.501 0,0 -0.714,-1.61 -2.448,-2.685 -1.889,-1.169 -4.546,-1.136 -4.546,-1.136 0,0 3.093,0.594 4.181,1.32 z"
         stroke-width="none"
         inkscape:connector-curvature="0"
         style="opacity:1;fill:#c27b55" />
      <path
         id="SvgjsPath4322"
         d="m 112.975,87.32 c -3.938,-5.489 4.548,-9.17 11.685,-9.764 14.733,-1.227 17.195,5.648 13.992,7.583 2.204,-5.833 -7.253,-6.425 -13.409,-6.209 -6.043,0.212 -13.515,2.652 -12.268,8.39 z m 4.264,3.284 c 5.376,-0.04 8.619,-0.104 13.408,-0.382 2.85,-0.165 5.406,-1.528 6.943,-3.226 -2.668,1.241 -4.717,2.363 -6.996,2.467 -4.945,0.225 -7.902,0.589 -13.196,0.504 l -3.021,-0.956 2.862,1.593 z"
         stroke-width="none"
         inkscape:connector-curvature="0"
         style="opacity:1;fill:#5fa2a5" />
    </g>
    <path
       id="SvgjsPath2885"
       d="m 342.75064,760.14715 c 0.0778,50.29316 -40.66671,91.13773 -91.01322,91.20665 -50.33762,0.0823 -91.21332,-40.62448 -91.29113,-90.92875 -0.0778,-50.28871 40.66671,-91.29335 91.011,-91.37338 50.33985,-0.0778 91.21999,40.79566 91.29335,91.09548 z"
       style="opacity:1;fill:url(#SvgjsRadialGradient2886)"
       inkscape:connector-curvature="0" />
    <path
       id="SvgjsPath2889"
       d="m 334.96945,626.81093 c 0,46.04463 -37.32525,83.36987 -83.36765,83.36987 -46.04463,0 -83.3721,-37.32524 -83.3721,-83.36987 0,-46.04463 37.32747,-83.36988 83.3721,-83.36988 46.0424,0 83.36765,37.32525 83.36765,83.36988 z"
       style="opacity:1;fill:url(#SvgjsRadialGradient2890)"
       inkscape:connector-curvature="0" />
    <path
       id="SvgjsPath4990"
       d="m 145.97106,670.98807 c 16.61839,-20.86025 45.21537,-17.38984 68.64786,-14.03726 5.96039,0.8537 12.09642,1.49398 17.9412,2.97019 4.1885,1.05602 7.48106,5.82922 4.11514,9.68424 -1.57402,1.83414 -5.00886,1.49399 -7.12979,1.44953 -28.05897,-0.56692 -59.77509,-16.70288 -83.57441,-0.0667 z"
       stroke-width="none"
       inkscape:connector-curvature="0"
       style="opacity:1;fill:#803300;stroke:none" />
    <path
       id="SvgjsPath4991"
       d="m 357.37261,670.14326 c -4.811,-3.21919 -9.90212,-5.4913 -15.65798,-6.42282 -21.1137,-3.42372 -61.3291,10.64911 -71.9004,7.67003 -6.47395,-1.82747 -5.16449,-8.31253 -2.30101,-9.91101 1.72298,-0.96265 2.20096,-0.93819 17.58326,-3.5838 26.13813,-4.49085 55.40429,-8.06131 72.27613,12.2476 z"
       stroke-width="none"
       inkscape:connector-curvature="0"
       style="opacity:1;fill:#803300;stroke:none" />
    <path
       id="SvgjsPath4458"
       d="m 254.04509,774.98032 c -1.04712,1.13605 -1.90305,1.00044 -2.89237,-0.17786 l -11.00483,-13.3125 27.01406,0 -13.11686,13.49036 z"
       stroke-width="none"
       inkscape:connector-curvature="0"
       style="opacity:1;fill:#e1ac8f" />
    <path
       id="SvgjsPath4459"
       d="m 236.47563,761.50271 14.89274,13.69104 c 1.19385,0.97153 1.65405,0.60248 1.03156,-0.81592 0,0 -4.74549,-7.3636 -5.10224,-11.56062 -1.11593,-13.12862 5.3882,-70.87811 3.55267,-60.8111 -7.15017,29.70739 -12.69826,50.63642 -14.37473,59.4966 z"
       stroke-width="none"
       inkscape:connector-curvature="0"
       style="opacity:1;fill:#c27b55"
       sodipodi:nodetypes="cccscc" />
    <g
       id="svga-group-beardwrap"
       transform="matrix(2.2231967,0,0,2.2231967,29.279908,512.76053)">
      <g
         id="svga-group-beard-single">
        <path
           style="opacity:1;fill:#2a232b"
           inkscape:connector-curvature="0"
           stroke-width="none"
           d="m 100,151.01 c -1.99,-0.86 -3.71,-1.78 -4.61,-4.15 -4.7,-12.39 13.98,-12.07 9.21,0 -0.94,2.39 -2.57,3.26 -4.6,4.15 z"
           id="SvgjsPath4395" />
        <path
           style="opacity:1;fill:#1b141c"
           inkscape:connector-curvature="0"
           stroke-width="none"
           d="m 99.12,148.32 c -0.98,-1.33 -1.19,-1.59 -1.69,-3 -0.03,0.01 -0.1,-0.55 -0.2,-1.1 -0.01,-1.48 -0.1,-1.92 1.31,-4.31 -0.6,1.8 -0.58,1.8 -0.78,3.24 -0.09,0 0.1,2.05 0.18,2.04 0.53,1.72 0.6,1.82 1.18,3.13 z m 1.92,-8.42 c 1.58,2.3 1.6,4.8 0.92,7.67 1.37,-2.75 1.35,-5.52 -0.92,-7.67 z m 0,2.34 c -0.13,2.04 -1.12,3.83 -0.33,6.08 -0.27,-2.09 0.56,-4.09 0.33,-6.08 z m -2.09,-0.75 c 0.49,4.6 0.06,2.86 0.42,6.25 0.3,-2.65 0.36,-3.75 -0.42,-6.25 z"
           id="SvgjsPath4396" />
        <path
           style="opacity:1;fill:#0c080c"
           inkscape:connector-curvature="0"
           stroke-width="none"
           d="m 95.3,146.9 c 0.89,2.33 2.53,3.28 4.7,4.22 2.26,-0.98 3.77,-1.88 4.7,-4.22 4.84,-12.25 -14.16,-12.57 -9.4,0 z m 8.8,-0.65 c -1.05,2.31 -2.24,3.52 -4.1,4.66 -3.47,-2.23 -4.69,-5.09 -4.49,-7.15 0.64,-9.91 11.12,-5.96 8.59,2.49 z"
           id="SvgjsPath4397" />
      </g>
    </g>
    <path
       id="SvgjsPath4387"
       d="m 300.15419,801.31186 c -32.19188,-3.89059 -24.16614,-5.18005 -38.61692,-5.75808 -2.2899,-0.0889 -4.15738,-1.64516 -4.66872,-3.80167 -0.4224,-1.84525 -1.35615,-6.71405 -0.68919,-12.18311 5.89147,0.71142 32.0585,6.31388 38.17229,10.40456 5.00219,3.42372 5.13558,7.46994 5.80254,11.3383 z m -91.30668,-11.3383 c 6.26941,-4.20184 33.54803,-9.91546 37.88327,-10.3601 l 0,-0.0222 c 0.11116,-0.0222 0.20008,-0.0222 0.26678,-0.0222 0.66696,5.46906 -0.24455,10.33786 -0.68919,12.18311 -1.24499,5.29121 -6.91414,3.22364 -12.62776,4.46863 -27.03407,5.62469 -20.07546,3.8239 -30.65788,5.09112 0.68919,-3.86836 0.82258,-7.91458 5.82478,-11.3383 z"
       stroke-width="none"
       inkscape:connector-curvature="0"
       style="opacity:1;fill:#2a232b" />
    <path
       id="SvgjsPath4388"
       d="m 247.19765,779.32445 c 0.60026,4.64648 0.0889,9.27073 -0.66696,12.47213 -0.53357,2.24543 -2.48998,3.86836 -4.77987,3.95729 -2.80123,0.11116 -6.02487,0.24455 -8.00351,0.66696 -27.21193,5.66915 -19.94208,3.77943 -30.96913,5.13558 0.0222,-0.0667 0.0222,-0.15562 0.0445,-0.22232 1.06714,-1.02267 2.08981,-1.55623 2.08981,-1.55623 14.62863,-10.44903 39.06156,-1.26723 41.95172,-20.43118 0.13339,0 0.26678,-0.0222 0.33348,-0.0222 z m 8.80386,0 c -0.60027,4.64648 -0.0889,9.27073 0.66696,12.47213 0.53356,2.24543 2.48998,3.86836 4.77987,3.95729 2.80123,0.11116 6.02486,0.24455 8.00351,0.66696 27.21193,5.66915 19.94207,3.77943 30.96913,5.13558 -0.0222,-0.0667 -0.0222,-0.15562 -0.0445,-0.22232 -1.06713,-1.02267 -2.0898,-1.55623 -2.0898,-1.55623 -14.62864,-10.44903 -39.06157,-1.26723 -41.95172,-20.43118 -0.13339,0 -0.26679,-0.0222 -0.33348,-0.0222 z m -40.26209,11.11598 c -2.31213,0.0889 -2.91239,0.40017 -4.35747,1.37838 -0.11116,0.11116 -2.24543,2.04534 -2.08981,2.04534 -0.68919,0.77812 -2.06757,2.75677 -2.73453,3.64604 3.62381,-3.02354 4.4464,-5.93593 9.18181,-7.06976 z m 8.04797,0.68919 c 9.64867,-3.37926 13.40587,-6.91414 20.29778,-9.44859 -6.26941,3.86837 -11.56062,8.29253 -20.29778,9.44859 z m -7.22539,1.40061 c 4.93549,-3.31256 8.93725,-5.04665 12.78338,-6.66959 -2.2232,1.40062 -6.44727,4.20185 -12.78338,6.66959 z m 17.78557,-2.51221 c 2.2232,-1.82302 4.8688,-2.06757 7.22539,-3.89059 -2.42328,2.48998 -4.33523,2.35659 -7.22539,3.89059 z m 53.11217,0.42241 c 2.31213,0.0889 2.91239,0.40017 4.35747,1.37838 0.11116,0.11116 2.24542,2.04534 2.0898,2.04534 0.68919,0.77812 2.06757,2.75677 2.73453,3.64604 -3.62381,-3.02354 -4.44639,-5.93593 -9.1818,-7.06976 z m -28.34576,-8.7594 c 6.86968,2.53445 10.62688,6.06933 20.29779,9.44859 -8.73716,-1.15606 -14.02837,-5.58022 -20.29779,-9.44859 z m 14.7398,4.17961 c 3.84613,1.62294 7.84788,3.35703 12.78338,6.66959 -6.33611,-2.46774 -10.56019,-5.26897 -12.78338,-6.66959 z m -12.22758,0.26679 c 2.35658,1.82302 5.00219,2.06757 7.22538,3.89059 -2.89015,-1.534 -4.8021,-1.40061 -7.22538,-3.89059 z"
       stroke-width="none"
       inkscape:connector-curvature="0"
       style="opacity:1;fill:#1b141c" />
    <path
       id="SvgjsPath4389"
       d="m 294.48504,789.7957 c -6.5362,-4.3797 -34.25946,-10.02662 -37.79434,-10.36009 l 0,-0.0222 c -0.17786,-0.0222 -0.5558,-0.0667 -0.68919,-0.0667 -0.60027,4.64648 -0.0889,9.27073 0.66696,12.47213 0.53356,2.24543 2.48998,3.86836 4.77987,3.95729 2.80123,0.11116 6.02486,0.24455 8.00351,0.66696 27.21193,5.66915 19.94207,3.77943 30.96913,5.13558 -0.73366,-4.00175 -0.71143,-8.22582 -5.93594,-11.78294 z m -24.72194,5.20228 c -2.02311,-0.35571 -4.71318,-0.28901 -7.55887,-0.17785 -1.6674,0.0667 -3.15694,-1.04491 -3.57935,-2.64561 -0.5558,-2.04534 -1.20053,-4.93549 -1.84525,-12.04972 4.66871,0.93374 12.85007,3.95729 18.00789,5.31344 18.4303,4.46862 20.92028,5.15781 24.43293,15.18443 -0.0889,-0.0445 -29.36843,-5.62469 -29.45735,-5.62469 z m -66.98492,6.55843 c 11.02705,-1.33392 3.7572,0.53357 30.96913,-5.13558 1.97864,-0.42241 5.20228,-0.5558 8.00351,-0.66696 2.31212,-0.0889 4.26853,-1.71186 4.77987,-3.95729 0.73365,-3.2014 1.26722,-7.82565 0.66696,-12.47213 -0.13339,0 -0.51134,0.0667 -0.68919,0.0667 l 0,0.0222 c -3.53489,0.35571 -31.25815,6.00263 -37.79435,10.3601 -5.22451,3.57935 -5.20228,7.80342 -5.93593,11.78294 z m 1.20052,-0.93374 c 3.51266,-10.02662 6.00264,-10.71581 24.43294,-15.18443 5.15781,-1.35615 13.33918,-4.3797 18.00789,-5.31344 -0.64473,7.11423 -1.28945,10.00438 -1.84525,12.04972 -0.44464,1.6007 -1.91195,2.69007 -3.57935,2.64561 -2.84569,-0.0889 -5.53576,-0.15563 -7.55887,0.17785 -0.0889,0 -29.36843,5.58023 -29.45736,5.62469 z"
       stroke-width="none"
       inkscape:connector-curvature="0"
       style="opacity:1;fill:#000000" />
    <path
       id="SvgjsPath4987"
       d="m 129.26596,717.73078 c -5.38681,-19.59748 -8.28808,-36.75611 -12.31651,-54.65729 l 0.18452,-0.0422 c -1.52511,-3.75498 -7.02975,-33.48134 -7.08088,-33.80148 -5.61357,-39.50621 11.10042,-41.76053 10.76027,-58.24331 7.03642,3.52377 13.8772,1.77633 20.05101,-3.03466 -6.48728,-3.33258 -4.43972,-3.85947 -13.05461,-9.10399 6.07155,-1.04935 9.61755,0.36682 14.77537,1.00933 -4.4086,-4.4086 -13.06128,-13.40143 -18.68375,-12.2098 l -0.36682,-0.78701 c 8.13912,-6.35167 19.00388,6.8719 28.79929,3.29033 0.29568,-36.4004 53.50567,-43.95927 66.45579,-49.36831 17.24089,-6.56065 35.25101,-20.9892 47.91656,-22.27865 -7.16981,7.20538 -11.56062,18.78379 -11.88743,27.47426 10.44457,-9.97326 11.18268,-9.68202 27.01406,-27.26528 0,14.14842 -3.9195,15.92476 -9.00617,24.2284 13.80827,-9.04841 31.02471,-34.4351 57.53855,-38.3168 l 0.29124,0.82259 c -9.5553,5.62913 -16.94965,15.12663 -22.0052,28.25238 5.01776,-6.06043 12.11865,-12.63443 19.97765,-13.82384 l 0.29568,0.82036 c -4.92438,2.94574 -14.57083,12.7656 -16.77846,29.20836 9.73982,-10.8781 25.23328,-19.89316 35.86905,-23.2991 l 0.41574,0.76922 c -9.76428,7.94349 -13.67933,21.84958 -15.88696,33.67254 6.84744,-10.18224 10.83141,-12.50326 19.4463,-16.78069 -2.77233,4.14627 -2.59225,3.4215 -4.79766,7.92792 5.32678,13.61264 22.92783,14.14176 25.93581,37.92552 3.62381,-3.16584 5.06222,-3.95952 9.22849,-6.87413 l 0.62694,0.60471 c -3.13026,4.86213 -5.71139,13.47257 -7.42992,19.2351 6.18049,-4.71985 15.72467,-8.19693 22.44539,-10.62244 l 0.4691,0.72921 c -5.67138,5.76475 -12.55662,14.55305 -13.69934,24.08612 2.2232,-1.31614 2.32991,-1.16496 5.22451,-3.25921 0,6.84967 0.23344,5.97595 0.28235,9.12622 2.79456,-2.50109 3.22363,-2.85014 5.05999,-4.84879 -0.40684,71.94709 -4.10179,57.60747 -14.04393,107.74945 -1.74299,8.81053 -4.82656,24.19505 -6.8052,31.58496 l -13.44812,2.3099 c 4.15738,-49.78627 -0.20676,-38.93262 2.81679,-70.26191 4.47307,-46.1958 -26.9122,-81.06351 -76.31386,-68.66919 -9.99549,2.50776 -54.88853,3.50554 -64.87958,1 -54.57281,-13.70156 -75.23476,14.18575 -81.09288,69.98354 -2.87015,27.38533 -3.57268,18.14351 0.59359,67.94756 l -12.89676,-2.20986 z"
       stroke-width="none"
       inkscape:connector-curvature="0"
       style="opacity:1;fill:#502d16;stroke:none"
       sodipodi:nodetypes="cccccccccccccccccccccccccccccccccccccccccsccccc" />
    <path
       id="SvgjsPath4988"
       d="m 390.2737,583.14735 c -0.0467,-3.1525 -0.28235,-2.27656 -0.28235,-9.12623 -2.8946,2.09203 -3.00132,1.94308 -5.22451,3.25921 1.14272,-9.53307 8.02796,-18.32136 13.69934,-24.08611 l -0.4691,-0.72921 c -6.7185,2.42773 -16.26268,5.90258 -22.44539,10.62243 1.7163,-5.76252 4.29966,-14.37297 7.42992,-19.2351 l -0.62694,-0.60471 c -4.16627,2.91462 -5.60468,3.7083 -9.22849,6.87413 -3.00799,-23.78154 -20.60903,-24.31288 -25.93581,-37.92551 2.20541,-4.50642 2.02533,-3.78166 4.79765,-7.92792 -8.61488,4.27743 -12.59885,6.59844 -19.4463,16.78069 2.20764,-11.82296 6.12491,-25.72906 15.88697,-33.67254 l -0.41574,-0.76923 c -10.63577,3.40594 -26.12923,12.421 -35.86906,23.2991 2.20764,-16.44276 11.85409,-26.26262 16.77847,-29.20835 l -0.29569,-0.82036 c -7.859,1.18941 -14.95989,7.76562 -19.97764,13.82383 5.05555,-13.12575 12.45212,-22.62325 22.0052,-28.25238 l -0.29124,-0.82258 c -26.51384,3.8817 -43.73028,29.26838 -57.53855,38.31679 5.08667,-8.30364 9.00617,-10.0822 9.00617,-24.2284 -15.83139,17.58327 -16.56949,17.29203 -27.01407,27.26529 0.32459,-8.69048 4.71763,-20.27111 11.88744,-27.47427 -12.66333,1.28946 -30.67345,15.71578 -47.91656,22.27866 -12.9479,5.40681 -66.15789,12.96568 -66.45357,49.3683 -9.79541,3.58157 -20.66017,-9.642 -28.79929,-3.29033 l 0.36682,0.78701 c 5.62247,-1.19385 14.27515,7.79898 18.68375,12.2098 -5.1556,-0.6425 -8.70382,-2.05868 -14.77537,-1.00933 8.61489,5.24452 6.56733,5.77142 13.05461,9.10399 -6.17381,4.811 -13.01459,6.55843 -20.05101,3.03466 0.34015,16.48501 -16.37606,18.73933 -10.76027,58.24331 0.0511,0.32014 5.55577,30.0465 7.08088,33.80148 l -0.18452,0.0422 c 4.02843,17.90118 6.9297,35.06204 12.31651,54.65729 l 0.0578,0.007 c -1.46953,-36.5538 -24.49963,-88.5188 -10.98482,-121.8045 1.763,-4.34635 8.58377,-15.80915 8.58377,-15.80915 0,0 21.40271,-2.81012 22.40982,-11.11598 0,0 -4.44639,-2.2232 -6.66959,-4.4464 4.44639,2.2232 4.44639,-4.44639 8.89279,-2.22319 0,-4.4464 -6.66959,-2.2232 -6.66959,-6.66959 4.44639,0 8.89278,0 13.33918,4.44639 -2.2232,-11.11598 0,-22.23197 8.89278,-28.90156 22.23197,-17.78557 51.13353,-15.56237 73.36549,-33.34795 -2.22319,11.11599 -4.44639,22.23197 -4.44639,33.34795 13.33918,-6.66959 17.78557,-20.00877 28.90156,-28.90155 2.22319,8.89278 -2.2232,20.00877 -2.2232,28.90155 6.66959,-15.56237 15.56238,-31.12475 35.57115,-35.57114 -8.89279,8.89278 -8.89279,22.23196 -8.89279,33.34795 0,-8.89279 8.89279,-13.33918 11.11599,-20.00877 0,8.89278 0,17.78557 0,26.67836 4.44639,-13.33918 13.33918,-20.00877 24.45516,-24.45517 -8.89279,8.89279 -6.66959,17.78558 -8.89279,28.90156 6.66959,-6.66959 15.56238,-8.89279 22.23197,-15.56238 6.66959,13.33918 2.2232,24.45517 2.2232,37.79435 2.22319,-11.11599 13.33918,-17.78558 20.00877,-26.67836 2.22319,11.11598 2.22319,22.23196 0,33.34795 2.22319,-6.66959 6.66959,-11.11599 8.89278,-17.78558 0,10.80474 -1.48509,20.14661 -4.40193,29.21726 2.79012,-3.22809 7.34545,-4.69317 8.84833,-9.20849 0,9.61533 0,17.57215 0,26.73839 1.28945,-2.65005 5.09112,-3.5749 6.66959,-6.72962 -1.89861,7.58777 -0.5647,13.56817 -0.13117,20.68018 0.8248,-4.35747 5.01998,-7.02975 6.5362,-11.04262 0.0889,-1.72964 0.18008,-3.46151 0.26233,-5.19116 0.50912,2.02755 0.30014,3.6994 -0.26233,5.19116 -2.02756,39.50843 -5.76475,78.95906 -13.90832,117.0024 l 1.44063,-0.24678 c 1.97864,-7.3899 5.05999,-22.77442 6.8052,-31.58495 9.94436,-50.14198 13.63932,-35.80236 14.04394,-107.74945 -1.83414,1.99865 -2.26322,2.34769 -5.05777,4.84657 z"
       stroke-width="none"
       inkscape:connector-curvature="0"
       style="opacity:1;fill:#784421;stroke:none" />
    <path
       id="SvgjsPath4989"
       d="m 402.28563,550.54639 c -11.0026,1.85415 -18.68819,5.42015 -24.56633,9.44858 0.85593,-2.23431 4.87547,-14.82872 9.20404,-20.11993 -6.64736,2.96353 -10.49349,6.1427 -12.71669,7.80343 0,-2.29434 -0.88483,-4.94439 -1.31168,-6.31388 -0.42019,-1.14495 -0.77368,-2.48331 -2.82569,-5.82478 -11.49615,-16.22044 -12.21424,-9.43525 -21.62948,-21.85402 1.71631,-4.02621 4.19962,-7.94126 7.31432,-11.18268 -8.68825,1.23387 -13.26137,4.61313 -18.76378,10.02662 -0.0889,0.0889 -0.15562,0.17785 -0.22232,0.26678 3.44818,-13.6193 10.20447,-25.4267 23.47696,-29.85753 -16.41609,-0.59582 -36.73833,11.54283 -46.95392,23.65481 4.41083,-14.18622 10.32898,-20.94474 19.12172,-27.23416 -6.32722,-0.93597 -12.52772,1.64961 -17.43209,5.73585 5.64915,-9.7754 14.04394,-17.56103 20.78912,-21.18707 -0.9582,-0.0222 -2.08981,-0.0889 -3.3348,0 -1.72742,-0.44241 -12.18089,1.25833 -15.91809,2.86793 -18.517,7.22983 -31.98958,24.05943 -37.77211,29.52405 4.25964,-6.88746 4.46863,-11.7785 3.69051,-18.94164 -1.4562,1.25166 -25.82243,24.57744 -26.12256,24.87757 1.72742,-9.57975 4.99107,-15.42231 11.16044,-23.98829 -10.99815,-2.05868 -38.53244,16.04481 -55.60215,20.87582 -17.88339,4.84434 -62.2584,14.94655 -60.2264,50.46656 -9.54863,1.8208 -23.53031,-13.51036 -30.85797,-0.64472 5.88258,-3.49042 13.67489,4.91326 19.09726,9.71537 -2.22319,-0.36238 -9.65534,-2.10759 -13.25025,0.28901 4.21074,1.63405 7.89235,6.51842 13.09463,9.11511 0.0667,0.0222 0.13339,0.0445 0.20009,0.0889 -4.75542,2.50776 -10.37566,4.52198 -15.54015,3.09024 -0.77812,-0.22232 -1.28945,-0.35571 -1.28945,-0.37794 -0.60026,-0.26679 -1.24499,-0.53357 -1.93418,-0.84482 l -0.0222,0 -0.0222,-0.0222 c -0.28901,-0.15562 -0.57803,-0.31125 -0.88928,-0.46687 1.54513,12.46769 -17.37872,22.57656 -15.29559,48.95479 0.85593,16.23156 11.0026,65.60209 23.75708,99.07898 l 1.07381,0.32014 c -5.31789,-19.17729 -8.39702,-37.21631 -12.38099,-54.91518 -0.34682,0 -6.83188,-33.44577 -6.89191,-33.81482 -5.57133,-39.19718 11.10265,-42.04065 10.78251,-57.4474 6.93859,3.47041 14.52192,0.96931 20.40894,-3.84613 -6.93192,-3.44818 -5.4535,-4.41972 -12.62775,-8.78163 4.80877,-0.83147 10.67801,1.07381 14.71756,1.33392 -5.21562,-5.21562 -14.00392,-14.47301 -19.96431,-13.20579 7.93237,-6.1916 18.8905,7.27208 28.96825,3.24587 0,-36.42263 52.7409,-43.65247 66.18457,-49.26604 16.16486,-6.14936 36.20031,-21.06701 46.55152,-22.12081 -5.4246,5.46462 -11.16045,17.56548 -11.16045,27.96782 10.74693,-10.31119 11.80517,-10.26006 27.03407,-27.16747 0,13.37031 -4.99552,15.75802 -9.85098,24.38847 14.25958,-8.22138 31.5227,-35.18876 58.89248,-39.19496 -11.45836,6.75185 -18.75267,18.50812 -23.14348,31.05806 5.22896,-6.80076 12.89454,-14.51747 21.40938,-15.80693 -4.4664,2.67228 -15.25335,12.85453 -17.16308,30.96913 9.65979,-11.36943 25.75796,-20.77799 36.61605,-24.25507 -10.23782,8.33254 -14.15731,23.05677 -16.42942,36.06025 3.75053,-5.72029 7.46327,-10.887 13.27248,-14.53971 0.0245,-0.0222 0.0667,-0.0445 0.0889,-0.0445 2.28767,-1.55402 1.68963,-1.13161 5.60468,-3.09025 -1.48732,2.2232 -1.62516,1.93418 -3.97952,6.75852 5.39347,14.17733 23.3947,14.25736 26.07587,38.83925 4.12848,-3.66161 5.42683,-4.3219 9.82653,-7.40325 -3.42817,5.32234 -6.18938,15.0466 -7.89235,20.7202 6.45839,-5.52465 18.40585,-9.62645 23.4325,-11.44947 -6.66959,6.78075 -13.14576,15.77581 -13.91721,25.25552 1.36504,-0.91818 3.09913,-1.64517 5.31344,-3.24587 0,6.05599 0.28901,5.24674 0.28901,9.2485 1.1694,-1.06936 3.8239,-3.35703 5.04888,-4.69095 -0.43574,70.51091 -4.17961,56.8338 -14.03059,106.51336 -3.68606,18.62149 -5.63136,27.23416 -6.84967,31.75392 l 0.95153,-0.19342 c 7.96793,-23.90159 23.87046,-77.90526 23.15237,-105.85974 -0.0734,-10.44902 -2.35437,-32.23635 -2.46775,-34.45955 -0.0467,0.04 -4.63314,4.3797 -4.69095,4.3797 0,-1.13605 -0.46687,-5.96928 -0.46687,-8.60377 -0.78479,0.60249 -2.4344,1.72965 -4.64648,3.02355 3.06579,-9.25517 7.73228,-15.00658 16.45166,-25.45338 z"
       stroke-width="none"
       inkscape:connector-curvature="0"
       style="opacity:1;fill:#c87137;stroke:none" />
    <path
       id="SvgjsPath4339"
       d="m 348.57542,729.30252 c -5.24675,4.89103 -13.85052,6.75852 -30.14655,6.75852 -21.74286,0 -35.97132,-2.42329 -45.37544,-21.1426 -7.31432,-14.53971 -10.27117,-30.14655 -6.71406,-35.52669 4.91327,-7.42547 19.0528,-12.47213 34.83749,-13.96167 27.41202,13.02793 46.6649,39.15049 47.39856,63.87244 z M 189.3723,664.98544 c -16.98522,0.46687 -33.54804,5.22451 -40.6178,15.67354 -4.84657,7.13646 -3.7572,27.90111 -0.4891,37.66095 4.44639,13.31695 11.2716,17.74111 36.50489,17.74111 21.74286,0 35.97132,-2.42329 45.37544,-21.1426 0.93374,-1.86749 1.80079,-3.75721 2.60114,-5.64692 -7.18093,-18.09682 -23.03232,-34.81526 -43.37457,-44.28608 z"
       stroke-width="none"
       inkscape:connector-curvature="0"
       style="opacity:0.2;fill:#ffffff" />
    <path
       id="SvgjsPath4340"
       d="m 354.93376,718.34216 c -1.57847,4.71318 -3.46819,8.29252 -6.35834,10.98259 -0.73366,-24.72195 -19.98654,-50.84451 -47.42079,-63.89467 20.83136,-1.97865 44.4417,2.20096 53.29003,15.25113 4.84657,7.13646 3.7572,27.87888 0.4891,37.66095 z M 236.88202,679.39175 c -6.20272,-9.40412 -27.16747,-14.96211 -47.50972,-14.38408 20.36448,9.44859 36.19364,26.16703 43.3968,44.28608 5.35791,-12.76115 7.20316,-25.21105 4.11292,-29.902 z"
       stroke-width="none"
       inkscape:connector-curvature="0"
       style="opacity:0.4;fill:#ffffff" />
    <path
       id="SvgjsPath4341"
       d="m 366.73894,670.41004 c -22.63215,-12.13865 -80.34633,-15.58461 -101.15545,0.33348 -1.77856,1.0449 -9.40413,-1.1783 -13.98391,-1.1783 -4.33524,0 -12.04973,2.33436 -13.98391,1.1783 -20.80912,-15.91809 -78.52331,-12.47213 -101.15545,-0.33348 -3.24587,1.75632 -3.60158,10.02662 -0.77812,11.29384 2.02311,0.91151 3.35703,2.17873 3.24587,4.40193 -0.71142,12.49436 2.73453,28.7237 4.2463,33.19232 1.93419,5.75808 5.4246,16.47389 20.6535,19.1195 12.96124,2.24542 36.52712,3.29033 48.77694,-0.37795 22.20973,-6.62512 31.65832,-40.10647 32.05849,-51.51146 l 0.0222,0.0445 c 0.88927,-4.00175 12.939,-4.00175 13.85051,0 l 0.0222,-0.0445 c 0.37795,11.40499 9.84877,44.88634 32.0585,51.51146 12.24981,3.66828 35.8157,2.62337 48.77694,0.37795 15.22889,-2.64561 18.71931,-13.36142 20.65349,-19.1195 1.51178,-4.49085 4.95773,-20.69796 4.26854,-33.19232 -0.11116,-2.2232 1.24499,-3.49042 3.24587,-4.40193 2.77899,-1.26722 2.42328,-9.53752 -0.82258,-11.29384 z m -156.46859,61.69371 c -11.24937,3.35702 -31.83618,3.57934 -43.81921,1.48954 -10.09331,-1.75633 -14.31738,-7.24762 -17.11861,-15.62907 -3.29033,-9.78207 -4.15738,-30.03539 0.35571,-36.68275 15.02881,-22.1875 75.29967,-17.89673 86.26003,-1.28945 4.89104,7.44771 -4.60201,45.82008 -25.67792,52.11173 z m 143.59628,-14.1173 c -2.80123,8.38145 -7.04754,13.87275 -17.11862,15.62907 -11.98303,2.08981 -32.56983,1.86749 -43.81921,-1.48954 -21.0759,-6.29165 -30.56895,-44.66402 -25.67792,-52.11173 10.96036,-16.60728 71.23123,-20.89805 86.26003,1.28945 4.51309,6.62513 3.64605,26.90068 0.35572,36.68275 z"
       stroke-width="none"
       inkscape:connector-curvature="0"
       style="opacity:1;fill:#26120b" />
    <path
       id="SvgjsPath4342"
       d="m 292.90657,732.01482 c 6.20272,1.84525 15.25113,2.75676 24.12169,2.82346 -27.87889,2.7123 -34.215,-7.55887 -38.06113,-11.4717 -7.82565,-7.98127 -12.64999,-19.89761 -13.0057,-37.01622 0.0667,13.51704 9.55974,40.48441 26.94514,45.66446 z m -55.33536,-61.36023 c -20.80912,-15.91809 -78.52331,-12.49436 -101.15545,-0.33348 51.66709,-14.49524 81.68024,-7.00307 101.15545,0.33348 z m -71.16453,62.872 c -10.09331,-1.75632 -14.31739,-7.24762 -17.11861,-15.62907 -2.93462,-8.73716 -3.93506,-25.83355 -0.88928,-34.12607 -4.06845,9.38189 -2.48998,27.54541 0.57803,36.68275 3.55711,10.67134 10.09331,15.96255 38.55023,14.36185 -7.71449,0.15562 -15.40675,-0.31125 -21.12037,-1.28946 z m 202.95563,-57.13615 c -0.0889,-2.51221 -1.00044,-5.15782 -2.66784,-6.06933 -22.1875,-11.91633 -78.12313,-15.42898 -99.88823,-0.5558 29.25727,-11.71624 71.43131,-13.36141 102.55607,6.62513 z"
       stroke-width="none"
       inkscape:connector-curvature="0"
       style="opacity:1;fill:#351d15" />
    <path
       style="fill:#ffb380;fill-rule:evenodd;stroke:#e1ac8f;stroke-width:1px;stroke-linecap:butt;stroke-linejoin:miter;stroke-opacity:1"
       d="m 251.07581,703.47274 16.41855,57.6839"
       id="path4405"
       inkscape:connector-curvature="0"
       sodipodi:nodetypes="cc" />
  </g>
</svg>
